<svg id="Layer_1" data-name="Layer 1" xmlns="http://www.w3.org/2000/svg" viewBox="0 0 600 364.62"><defs><style>.cls-1{fill:#231f20;}</style></defs><path class="cls-1" d="M83.26,92.64,62.44,104.26l.52,4.26q1.07,9.33,2.36,11.63a5,5,0,0,0,3.76,2.8,7.91,7.91,0,0,0,5-1.13l1,1.86-16.29,9.1-1-1.86a10.08,10.08,0,0,0,4-5.59q.66-3-.42-10.83-.13-.72-.68-5.77L55.38,61.79,57,60.91,99.58,94.23l5.72,4.35a8.72,8.72,0,0,0,4,1.77,9.47,9.47,0,0,0,5.09-1l1,1.86-21.55,12-1-1.86c2.64-1.47,4.32-2.66,5-3.58a2.58,2.58,0,0,0,.1-3.1q-.5-.89-4.81-4.25ZM81.55,91.2l-22.74-18L62.19,102Zm373-20.39L432.06,63l-2.84,3.23q-6.24,7-7.11,9.49a5,5,0,0,0,.41,4.67,8,8,0,0,0,4.18,3l-.7,2-17.63-6.11.7-2a10,10,0,0,0,6.83-.74q2.67-1.5,7.8-7.51c.3-.39,1.58-1.84,3.86-4.35l31.51-35.19,1.71.6,3.48,54,.55,7.16a8.75,8.75,0,0,0,1.33,4.16,9.49,9.49,0,0,0,4.13,3.12l-.7,2-23.31-8.09.7-2a18.53,18.53,0,0,0,6,1.38,2.59,2.59,0,0,0,2.38-2c.22-.64.22-2.79,0-6.43Zm-.06-2.23L452.8,39.66,433.57,61.31ZM124.66,96l-8.34-18.39,2.11-1Q130.16,93,143.57,86.9q6-2.73,7.78-7.67a11.89,11.89,0,0,0-.17-9.2A10.74,10.74,0,0,0,145,64.14q-4.22-1.55-13.42-1.34a85.36,85.36,0,0,1-12.72-.47,17.24,17.24,0,0,1-8.06-3.28,16.94,16.94,0,0,1-5.39-6.66A14.88,14.88,0,0,1,105,40.28a16.34,16.34,0,0,1,8.89-8.93,21.58,21.58,0,0,1,7.36-1.92,19.17,19.17,0,0,1,8.8,1.92,9.94,9.94,0,0,0-.08-6l1.86-.84,6.78,15-1.86.85a22.09,22.09,0,0,0-10.33-7.73,14.81,14.81,0,0,0-11.13.52q-5.1,2.31-6.23,6.16a9.89,9.89,0,0,0,.36,7.13,9.55,9.55,0,0,0,6,5.34q4.22,1.46,13.5,1.41a124,124,0,0,1,13.13.43A16.53,16.53,0,0,1,150,56.68,17.8,17.8,0,0,1,155.74,64a17.16,17.16,0,0,1,.52,14.15q-2.82,6.81-11,10.52a21.92,21.92,0,0,1-19-.1,15.74,15.74,0,0,0,.45,6.5Zm348.53,3.56L483,81.91l2,1.12q-6.18,19.14,6.69,26.32,5.77,3.23,10.79,1.7a11.88,11.88,0,0,0,7.29-5.6A10.73,10.73,0,0,0,510.89,97q-1.26-4.31-6.89-11.59a85.91,85.91,0,0,1-7.19-10.51,17.34,17.34,0,0,1-2.15-8.44,16.82,16.82,0,0,1,2.16-8.28,14.86,14.86,0,0,1,9.51-7.5A16.31,16.31,0,0,1,518.8,52.5a21.45,21.45,0,0,1,5.92,4.79,19.36,19.36,0,0,1,3.69,8.21,10,10,0,0,0,4.79-3.64l1.77,1-8,14.36-1.78-1a22,22,0,0,0,.07-12.89,14.79,14.79,0,0,0-7-8.65q-4.89-2.73-8.65-1.36a10,10,0,0,0-5.52,4.53,9.57,9.57,0,0,0-.72,8q1.34,4.26,6.89,11.7a118.91,118.91,0,0,1,7.45,10.81,16.45,16.45,0,0,1,2.19,8.2,17.72,17.72,0,0,1-2.44,8.92,17.12,17.12,0,0,1-11.07,8.83q-7.16,1.78-15-2.59a21.91,21.91,0,0,1-11.19-15.31,15.8,15.8,0,0,0-5,4.23Zm69.54-17.25L541,81.08l8.82-12.25L600,103.36,591.71,116l-1.64-1.13q2.64-5.71,2.68-9a7.73,7.73,0,0,0-1.37-5,28.85,28.85,0,0,0-5.63-4.64l-8.32-5.72-25.12,36.51a84.44,84.44,0,0,0-5.2,8.17,4.93,4.93,0,0,0-.39,3.89c.42,1.18,1.78,2.57,4.1,4.16l2.52,1.74-1.21,1.75L526.34,128.9l1.21-1.75,2.67,1.83q3.31,2.28,5.17,2.33a4.75,4.75,0,0,0,3.44-1.49,65.94,65.94,0,0,0,6-8L570,85.3,562.32,80a36.85,36.85,0,0,0-7-4.14c-1.37-.47-3.1-.25-5.21.66S545.52,79.37,542.73,82.29ZM179.63,45.55l3,12.85a80.61,80.61,0,0,0,2.54,9.37,4.83,4.83,0,0,0,2.59,2.89q1.74.74,5.84-.22l2-.47.48,2.08-28,6.51-.48-2.07,1.62-.38q3.93-.92,5.2-2.26a4.58,4.58,0,0,0,1.2-3.53,69.65,69.65,0,0,0-1.86-9.86l-7-30a67.2,67.2,0,0,0-2.59-9.33,4.16,4.16,0,0,0-2.49-2.51c-1.06-.32-3.14-.13-6.23.59l-1.13.27-.48-2.08,7.6-2.05q9.14-2.46,14.27-3.66,9.48-2.2,14.93-1.91a17.66,17.66,0,0,1,9.62,3.33,14.45,14.45,0,0,1,5.49,8.8,17.71,17.71,0,0,1-.17,9.36,14.73,14.73,0,0,1-5.05,7.31q-3.7,3-14.21,5.4Zm-.53-2.25,4.37-1a29,29,0,0,0,8.28-3,10.47,10.47,0,0,0,4.38-5.71,15.66,15.66,0,0,0,.22-8.85Q194.6,17.1,190,14.44t-12.88-.74A48.08,48.08,0,0,0,172.51,15ZM262.81,45l2.21-.23.69,19.57L214,69.75l-.23-2.12,1.29-.13q4.65-.5,5.88-1.87a5.63,5.63,0,0,0,1.4-3.34,71.37,71.37,0,0,0-.65-9.78L218.5,21.89a72.21,72.21,0,0,0-1.37-9.36,4.43,4.43,0,0,0-2.13-3q-1.5-.77-6-.28l-.22-2.12,44.62-4.66,3.1,15.41-2.16.23q-2.16-6.39-4.59-8.9a9.23,9.23,0,0,0-5.45-2.93,44.67,44.67,0,0,0-9.56.28l-8.66.9,2.74,26.21,6.63-.7q4.56-.46,6.3-1.45A4.08,4.08,0,0,0,243.88,29a21.1,21.1,0,0,0-.07-6.26l2.17-.23,2.23,21.37-2.17.23q-.54-5.2-1.6-6.89a4.26,4.26,0,0,0-2.8-2,21,21,0,0,0-5.74.06l-6.86.72,1.54,14.78c.77,7.4,1.71,11.7,2.79,12.91s3.72,1.59,7.9,1.15l4.65-.48a22.29,22.29,0,0,0,8-2.12,14.61,14.61,0,0,0,5.52-5.83A30.63,30.63,0,0,0,262.81,45ZM406.59,58.36l2.18.42-5,18.94L352.71,68l.4-2.09,1.28.24Q359,67,360.56,66a5.67,5.67,0,0,0,2.3-2.79,75.14,75.14,0,0,0,2.2-9.55l5.78-30.25a72.11,72.11,0,0,0,1.39-9.35A4.42,4.42,0,0,0,371,10.63q-1.21-1.16-5.67-2l.4-2.1L409.84,15,408.36,30.6l-2.14-.41c-.15-4.49-.75-7.77-1.82-9.84A9.28,9.28,0,0,0,400,16a44.83,44.83,0,0,0-9.24-2.49l-8.55-1.63L377.3,37.73,383.85,39a18,18,0,0,0,6.44.43,4.15,4.15,0,0,0,2.82-1.89,21.47,21.47,0,0,0,1.73-6l2.14.41L393,53l-2.14-.41c.66-3.42.81-5.78.46-7a4.25,4.25,0,0,0-2.1-2.76,21.43,21.43,0,0,0-5.51-1.6l-6.78-1.29-2.79,14.6q-2.08,11-1,13.16t7.22,3.38l4.6.88a22.09,22.09,0,0,0,8.24.28,14.53,14.53,0,0,0,7-4A30.72,30.72,0,0,0,406.59,58.36Zm-68,5.3h-16.9q-4.5-3.13-13.76-16.48-3-4.26-6.16-8.17a31.48,31.48,0,0,0-4.4-4.77,6.54,6.54,0,0,0-3.75-.85h-2.5V47.32a82.82,82.82,0,0,0,.35,9.7,5,5,0,0,0,1.85,3.41q1.51,1.11,5.77,1.11h3v2.13H272V61.54h2q4,0,5.58-1a4.63,4.63,0,0,0,2-3.17,70.44,70.44,0,0,0,.42-10V16.53a66.69,66.69,0,0,0-.42-9.67,4.16,4.16,0,0,0-1.85-3Q278.31,3,273.54,3h-1.06V.88l9-.46q9-.42,14.26-.42a52.76,52.76,0,0,1,14.61,1.67,19.56,19.56,0,0,1,9.1,5.46,12.94,12.94,0,0,1,3.47,9.07,14,14,0,0,1-4.53,10.52q-4.55,4.35-13.34,5.41Q309,34,317.72,45.84q7.13,9.58,11.21,12.55a16.91,16.91,0,0,0,9.63,3.14ZM291.09,31.25q3.48-.09,7.18-.27a27.41,27.41,0,0,0,6.44-1,11.12,11.12,0,0,0,4.42-2.43,11.06,11.06,0,0,0,2.66-4.19,18.28,18.28,0,0,0,1-6.39q0-6.63-3.31-10.61T295,2.36c-1.14,0-2.46.06-3.94.19ZM182.34,326H166.17l-1.1,2.7q-2.46,5.88-2.46,7.67a3.43,3.43,0,0,0,1.31,2.91,5.37,5.37,0,0,0,3.34,1v1.44H154.6v-1.44a6.86,6.86,0,0,0,4.21-2c.93-1,2-3.22,3.33-6.55.11-.31.61-1.53,1.51-3.64L176,298.5h1.23l14.23,33.84,1.95,4.46a5.87,5.87,0,0,0,1.77,2.37,6.51,6.51,0,0,0,3.35,1.09v1.44H181.81v-1.44a12.22,12.22,0,0,0,4.16-.46,1.75,1.75,0,0,0,1.09-1.8,17.86,17.86,0,0,0-1.45-4.12Zm-.53-1.41-7.54-18.16-7.51,18.16Zm84.93-5.81q7.26.53,10.78,3.61a9.83,9.83,0,0,1,3.52,7.7,10.59,10.59,0,0,1-2.39,6.93,11.09,11.09,0,0,1-6.11,3.8,44.82,44.82,0,0,1-10,.89H245.85v-1.44h1.63a7.41,7.41,0,0,0,3.79-.69,3.16,3.16,0,0,0,1.33-2.16,47.35,47.35,0,0,0,.29-6.8V309.87a44.85,44.85,0,0,0-.3-6.69,2.89,2.89,0,0,0-1.26-2.07,9.72,9.72,0,0,0-4.19-.57h-.82V299.1l7-.19,8-.25q17.46,0,17.47,10a8.24,8.24,0,0,1-3,6.66Q272.77,317.89,266.74,318.77Zm-7.7-.6,1.32,0q6.79,0,9.27-2.14t2.49-6.91a11.06,11.06,0,0,0-1-5.15,6.57,6.57,0,0,0-2.92-2.81q-2-1-6.66-1-1.23,0-2.52.09Zm0,1.54v9.49c0,4,.08,6.61.22,7.69a3.91,3.91,0,0,0,1.18,2.49c.64.56,1.9.85,3.79.85q5,0,7.54-2.58c1.67-1.72,2.51-4.29,2.51-7.73s-.95-6.11-2.84-7.78-5.23-2.5-10-2.5C260.68,319.64,259.88,319.67,259,319.71Zm69.29-19.17V299.1h19.48v1.44h-.91a10.29,10.29,0,0,0-4.12.52,2.74,2.74,0,0,0-1.3,1.93,40.07,40.07,0,0,0-.33,6.73v20.89a58.27,58.27,0,0,0,.23,6.58,3.35,3.35,0,0,0,1.26,2.31c.68.51,2,.76,3.91.76h1.26v1.44H328.33v-1.44h1.25a7.38,7.38,0,0,0,3.79-.69,3.17,3.17,0,0,0,1.34-2.16,49.61,49.61,0,0,0,.28-6.8V309.72a47.27,47.27,0,0,0-.28-6.57,2.79,2.79,0,0,0-1.26-2,9.84,9.84,0,0,0-4.21-.57ZM434.4,342.68l-30.13-39.94v29.57a20.29,20.29,0,0,0,.36,4.84,4.11,4.11,0,0,0,2.06,2.13,10.46,10.46,0,0,0,5.09,1v1.44h-15.9v-1.44a11.45,11.45,0,0,0,4.65-1.12,3.69,3.69,0,0,0,1.91-1.93,24.6,24.6,0,0,0,.29-4.9V309.72a30.53,30.53,0,0,0-.45-6.57,3.13,3.13,0,0,0-1.45-2.14,12.79,12.79,0,0,0-4.41-.47V299.1H409l25.24,33.33V307a9.44,9.44,0,0,0-.59-4,4.05,4.05,0,0,0-2.37-1.79,12.46,12.46,0,0,0-4.3-.66V299.1h15.46v1.44a11.19,11.19,0,0,0-4.26,1,3.84,3.84,0,0,0-2,2,12.56,12.56,0,0,0-.42,3.88v35.26Zm55.67-1.42v-13.7h1.57Q494.31,341,504.3,341a9.19,9.19,0,0,0,7-2.56,8.07,8.07,0,0,0,2.47-5.74,7.32,7.32,0,0,0-2.16-5.37q-2.18-2.13-7.92-4.59a57.12,57.12,0,0,1-7.73-3.85,11.67,11.67,0,0,1-4.07-4.28,11.51,11.51,0,0,1-1.47-5.63,10.12,10.12,0,0,1,3.16-7.59,11.09,11.09,0,0,1,8-3,14.52,14.52,0,0,1,5.09.88,13.06,13.06,0,0,1,4.9,3.65,6.76,6.76,0,0,0,1.64-3.74h1.38v11.15h-1.38a15,15,0,0,0-4.23-7.66,10,10,0,0,0-7-2.8c-2.54,0-4.4.68-5.58,2.06a6.76,6.76,0,0,0-1.77,4.51,6.5,6.5,0,0,0,2.23,5q2.19,2.07,7.94,4.65a83.1,83.1,0,0,1,8,3.94,11.31,11.31,0,0,1,4,4.14,12.12,12.12,0,0,1,1.51,6.09,11.63,11.63,0,0,1-3.65,8.89q-3.65,3.44-9.74,3.43a14.85,14.85,0,0,1-11.69-5.38,10.83,10.83,0,0,0-1.54,4.15ZM99.7,323.49h1.54v17H99.7a12.94,12.94,0,0,0-2.32-5.12A20.87,20.87,0,0,1,81,342.6q-10.52,0-17.19-6.66t-6.68-17.6a30.67,30.67,0,0,1,3.08-13.54,20.77,20.77,0,0,1,8.59-9.43,24.38,24.38,0,0,1,12.09-3.08,21.54,21.54,0,0,1,9.86,2.24,19.77,19.77,0,0,1,6.6,5,17.77,17.77,0,0,0,1.86-6.3h1.57l.43,18.39H99.7Q98.1,301.77,93.14,298A17.82,17.82,0,0,0,82,294.12a14.19,14.19,0,0,0-12.11,6.19q-4.5,6.19-4.49,17.71,0,10.92,4.9,16.72a15.32,15.32,0,0,0,12.2,5.82,18.77,18.77,0,0,0,8-1.9,13.89,13.89,0,0,0,6.46-6.42A24.07,24.07,0,0,0,99.7,323.49ZM24.16,280.93V240.17a1.39,1.39,0,0,1,1.25-1.39l6.9-.74a7,7,0,0,0,5.84-4.59L41.87,223a1.57,1.57,0,0,1,.41-.6L45,220.15a3.48,3.48,0,0,1,5.63,1.79l.07.28a2,2,0,0,0,3.66.52l14.76-25.16a11.57,11.57,0,0,1,4.66-4.41l11.21-5.82a1.22,1.22,0,0,0,.36-.27l18.88-19.39a1.38,1.38,0,0,1,1-.42h3a1.43,1.43,0,0,0,1.08-.51l18.33-22.41a1.4,1.4,0,0,1,1.08-.52h8.82a10.16,10.16,0,0,0,7.06-2.85l25.33-24.47a9.9,9.9,0,0,1,6.87-2.77h11.47a1.41,1.41,0,0,0,.91-.34l10.12-8.74a1.39,1.39,0,0,1,2.08.29l4.62,7a1.42,1.42,0,0,0,1.69.53l13.07-5.23a1.4,1.4,0,0,1,1.54,2.25l-17.58,18.74a1.39,1.39,0,0,1-2.41-.93l-.17-9.58a1.4,1.4,0,0,0-1.84-1.3L187,120.88a1.43,1.43,0,0,0-.28.13l-34.86,21.31a17.81,17.81,0,0,0-5.54,5.32l-9,13.52a1.39,1.39,0,0,1-2.55-.8l.1-5.22a1.4,1.4,0,0,0-2.35-1l-20.9,19.61a1.4,1.4,0,0,0,.93,2.42l6.41.1a1.4,1.4,0,0,1,.54,2.68L87,193.18a3,3,0,0,0-.38,5.37l12,7.42a5.91,5.91,0,0,0,7.47-1l2.68-2.89a.36.36,0,0,1,.62.26l-.82,19a2,2,0,0,0,3.38,1.59l18.41-16.51a2.39,2.39,0,0,1,4,1.72h0A2.38,2.38,0,0,0,138,210l16.7-11.78a1.39,1.39,0,0,1,1-.24l4.53.62a1.39,1.39,0,0,0,1.28-.51l5.08-6.35a1.4,1.4,0,0,1,1.89-.27L174,195.3a1.39,1.39,0,0,0,1.39.13l9.29-4.3a1.37,1.37,0,0,1,1.59.29l4.88,5.08a1.4,1.4,0,0,0,2.09-.07l8.94-10.78a1.39,1.39,0,0,1,1.14-.5l14.25.74a1.45,1.45,0,0,0,.9-.27l20.87-15.36a1.4,1.4,0,0,1,2,1.93l-9.34,13.19a81.91,81.91,0,0,1-16.5,17.27l-29.19,22.7a1.39,1.39,0,0,0,1.43,2.37L213.63,216a6.48,6.48,0,0,1,6.7.85l.1.08a1.4,1.4,0,0,0,1.66.06l13.42-9.14a4.49,4.49,0,0,1,6.47,1.57l3.89,7.15a1.37,1.37,0,0,0,1.24.73l28.51-.25a1.4,1.4,0,0,0,1.32-1l.54-1.68a4,4,0,0,1,5.24-2.57l11.61,4.24a1.4,1.4,0,0,0,1.75-.72l9.15-19.76a2.39,2.39,0,0,1,3.59-.92l4.69,3.43a1.36,1.36,0,0,0,.92.26l14.43-1a1.41,1.41,0,0,1,.91.26l17.7,12.85a1.39,1.39,0,0,0,2.07-.5l2.92-5.84a1.4,1.4,0,0,1,1.84-.64L379,215.08a1.4,1.4,0,0,0,2-1.27v-1.09a1.4,1.4,0,0,1,2.38-1l17.48,17.47a1.39,1.39,0,0,0,2.38-1V211.33a1.39,1.39,0,0,1,2.49-.86c2.32,3,5.5,6.87,6.16,6.87,1,0,17.73-5.63,19.77-6.32a1.35,1.35,0,0,1,.44-.07h7.35a1.4,1.4,0,0,1,.75.22l8.37,5.42a1.43,1.43,0,0,0,.75.22l55.69.5A17.57,17.57,0,0,0,511.9,216h0a14.46,14.46,0,0,1,11.43.19l23,10.34a1.4,1.4,0,0,0,1.6-2.22L530.8,205.74a1.43,1.43,0,0,0-.89-.44l-12.24-1.22a1.44,1.44,0,0,1-.91-.47L501.45,186a1.4,1.4,0,0,0-1.42-.43l-2.08.57,5.24,7.18a1.4,1.4,0,0,1-1.33,2.21l-3.68-.53a1.45,1.45,0,0,1-.84-.45l-34.95-38.86a1.38,1.38,0,0,0-1-.46l-16.34-.51a1.32,1.32,0,0,1-.7-.2l-10.88-6.72a1.4,1.4,0,0,0-2,.59l-2.36,4.91a1.38,1.38,0,0,0,.25,1.58l6,6.22a1.4,1.4,0,0,1-.1,2l-1.36,1.15a1.38,1.38,0,0,1-1.87-.06L422,154.54a10.62,10.62,0,0,0-9.86-2.69l-12.65,3a1.4,1.4,0,0,1-1.72-1.31l-.43-11.64a1.41,1.41,0,0,1,1.26-1.44l1.64-.17a6.3,6.3,0,0,0,5.57-5.23h0a6.31,6.31,0,0,0-1.81-5.55l-6-5.89a16.63,16.63,0,0,0-8.58-4.45l-2.31-.43a13.8,13.8,0,0,0-8.07.92l-2.27,1a11.84,11.84,0,0,0-7.07,10.11h0a1.41,1.41,0,0,1-1.39,1.31h-1a1.4,1.4,0,0,1-1.4-1.42l.24-15.26a1.38,1.38,0,0,0-.17-.69l-9.41-17.39a1.4,1.4,0,0,1,2-1.83l25.23,16.74a1.35,1.35,0,0,0,.44.2l9.35,2.29a12,12,0,0,1,5.9,3.44L420.81,141a1.37,1.37,0,0,0,1.07.44l13.05-.49a1.36,1.36,0,0,1,.79.21l9.17,5.7a1.47,1.47,0,0,0,.71.21l9.46.19a9.85,9.85,0,0,1,5.76,2l22.68,17.11a9.85,9.85,0,0,1,3,3.65l3.95,8.3a1.4,1.4,0,0,0,1.11.78l4,.45-.27-3.19,5.06.24a1.41,1.41,0,0,1,.92.4l19.86,19.86a1.41,1.41,0,0,0,.62.37l6.38,1.71a1.84,1.84,0,0,1,.35.15l36.73,21.76a10,10,0,0,1,4.92,8.63v51.48a1.39,1.39,0,0,1-1.4,1.39H25.55A1.39,1.39,0,0,1,24.16,280.93ZM147.45,162.8l6.6,8.29a6.93,6.93,0,0,0,6.4,2.56l12.76-1.77a.61.61,0,0,0,.12-1.18l-25.2-8.86A.61.61,0,0,0,147.45,162.8Zm108.64,17.8-.77,1.45a9,9,0,0,0-1.06,4.26v11.88a7.16,7.16,0,0,0,7.17,7.16h7.45a6.91,6.91,0,0,0,5.57-2.8l4.05-5.45a1.52,1.52,0,0,0-.14-2l-15.51-15.51A4.25,4.25,0,0,0,256.09,180.6Zm41.61,2.15-11.54,8.1a1,1,0,0,0,.43,1.81l11.54,1.62a1,1,0,0,0,1.14-1v-9.72A1,1,0,0,0,297.7,182.75ZM237.62,97.61l9.2,14.92a11.14,11.14,0,0,1,1.37,8.3l-2.5,11a.79.79,0,0,0,1.25.79l9.95-7.73a15.91,15.91,0,0,1,4.45-2.42l9.86-3.43a.76.76,0,0,0,0-1.45l-13.47-4a11.19,11.19,0,0,1-4.23-2.33L237.79,97.47A.11.11,0,0,0,237.62,97.61Zm78.43,27.58,28-23.44-18.37,2.14-10.92-5.07-31.35,16.27a7.55,7.55,0,0,0-4.07,6.7v.45a7.56,7.56,0,0,0,2,5.12l7.33,8,1.58,4.83a5.8,5.8,0,0,0,6.18,3.94l20.2-2.38,15.18,4.8h4a16.67,16.67,0,0,1,12.15,5.24l12.23,13a10.84,10.84,0,0,0,6.86,3.35l10,.94a12.51,12.51,0,0,1,7.47,3.43l11.78,11.36h40l31.69,13.32h12.52v-4.26L470,185.38l-25.56-3.73-49.81-17-10.12-1.87-14.16-11.23a40.54,40.54,0,0,0-9.77-5.71l-33.08-13.48a20.89,20.89,0,0,0-13-.9l-12.51,3.2a8.16,8.16,0,0,1-8.09-2.45l-6.36-7.08a4,4,0,0,1-.38-4.89h0a4,4,0,0,1,3.55-1.84l10.35.44,13.29-8.94a.65.65,0,0,1,1,.51Zm254.07,232.5h-546v6.93h546ZM0,93.33,1.19,95.1l1.23-.83c2.63-1.79,4.5-2.71,5.59-2.78a4.25,4.25,0,0,1,3.22,1.45A65.74,65.74,0,0,1,17,100.71L32.1,123c2.06,3.05,3.75,5.67,5.09,7.89,6.13,9.05,7.28,14.81,4.1,17.53a9,9,0,0,1-2.82,1.08,2.6,2.6,0,0,1-2.76-.93,4.92,4.92,0,0,1-.51-1.67,5.71,5.71,0,0,0-.89-2.3,4.38,4.38,0,0,0-3-2,4.63,4.63,0,0,0-3.57.8,4.36,4.36,0,0,0-1.95,3.1,5.22,5.22,0,0,0,.92,3.8q2,3,6.67,3c2.67,0,5.68-1.06,9-3l.07,0,.14-.1c.17-.11.33-.18.5-.29l-.05-.07c12.2-9,1.53-24.83-1-28.52H42c-.7-1.09-1.44-2.23-2.28-3.47L24.65,95.55a60.41,60.41,0,0,1-5.17-8.47,4,4,0,0,1,0-3.42q.77-1.44,4.6-4l1.3-.89L24.16,77Z"/></svg>