<svg width="144" height="56" viewBox="0 0 144 56" fill="none" xmlns="http://www.w3.org/2000/svg">
<g clip-path="url(#clip0_556_1953)">
<path d="M39.2309 54.49H42.5618V55.85H37.7105V47.27H39.2309V54.49ZM52.4646 55.85L51.7144 53.75H48.3434L47.6132 55.85H45.9928L49.2137 47.27H50.8541L54.065 55.85H52.4646ZM48.8036 52.43H51.2542L50.0339 48.95L48.8036 52.43ZM62.7574 47.28H64.2779V55.86H62.8975L59.4765 50.08V55.86H57.9561V47.28H59.3865L62.7574 53.01V47.28ZM72.6102 47.28C75.0608 47.28 76.4912 49.15 76.4912 51.59C76.4912 54.03 75.0608 55.86 72.6102 55.86H69.2492V47.28H72.6102ZM72.6102 54.5C74.1706 54.5 74.9608 53.18 74.9608 51.59C74.9608 50 74.1606 48.64 72.6102 48.64H70.7697V54.5H72.6102ZM81.0125 55.86V47.28H82.5329V55.86H81.0125ZM92.2956 47.28H93.8161V55.86H92.4357L89.0147 50.08V55.86H87.4943V47.28H88.9247L92.2956 53.01V47.28ZM98.2673 51.59C98.2673 49.15 100.178 47.13 102.639 47.13C103.869 47.13 104.969 47.63 105.719 48.41L104.619 49.37C104.109 48.86 103.409 48.54 102.639 48.54C101.038 48.54 99.7977 49.93 99.7977 51.59C99.7977 53.25 101.018 54.64 102.659 54.64C103.929 54.64 105.099 53.82 105.099 52.71H102.649V51.44H106.76C106.76 54.56 105.079 56.01 102.689 56.01C100.158 56.01 98.2673 54.01 98.2673 51.59ZM28.5579 52.23V50.91H32.9291V52.23H28.5579ZM111.081 52.23V50.91H115.452V52.23H111.081ZM83.9233 0.99L82.4229 0.76V0.28H90.6752V0.76L89.0047 1.02C88.0645 1.19 87.9844 1.53 87.9844 8.19C87.9844 16.19 88.0444 16.33 89.2648 16.56L90.7152 16.81V17.29H82.4629V16.81L83.9433 16.53C85.1637 16.3 85.1637 16.02 85.1637 9.27C85.1637 1.33 85.1036 1.19 83.9433 0.99H83.9233ZM41.8316 17.13C40.9214 17.4 39.9611 17.58 38.9108 17.58C34.1695 17.58 31.0286 13.95 31.0286 8.65C31.0286 4.79 32.8691 1.98 36.09 0.73L36.11 0.8L36.06 0.86L36.2701 1.47C34.9297 2.3 34.3095 4.06 34.3095 7.41C34.3095 13.51 36.4901 16.71 40.4913 16.71C40.9014 16.71 41.2715 16.65 41.6216 16.56L41.8216 17.14L41.8316 17.13ZM40.2212 0C39.1309 0 38.1506 0.16 37.2303 0.4L37.4504 1.03C37.8605 0.94 38.2906 0.86 38.8008 0.86C42.5218 0.86 44.8425 3.87 44.8425 9.71C44.8425 13.1 44.1623 15.06 42.8219 16.01L43.072 16.7C46.2128 15.25 48.1634 12.06 48.1634 7.7C48.1634 2.96 45.2126 0.01 40.2212 0.01V0ZM28.618 0.28H15.2843V0.76L16.7347 0.99C17.925 1.22 18.015 1.27 18.015 9.16C18.015 15.99 17.985 16.28 16.7347 16.53L15.3143 16.81V17.29H24.6168V16.81L22.4362 16.58C21.0058 16.38 20.8258 16.19 20.8258 9.48C20.8258 9.48 20.8258 8.42 20.8258 8.33C20.8258 2.94 20.8558 1.55 21.0258 0.81C26.2773 1.01 26.9275 1.49 27.8077 4.1L28.688 6.96H29.1381C28.888 4.63 28.708 2.19 28.628 0.27L28.618 0.28ZM69.7494 16.75C69.5793 15.96 69.4993 14.78 69.4993 8.87C69.4993 3.31 69.5493 1.77 69.7494 0.91L69.9194 0.27H63.9478V0.75L65.4482 0.98C66.6085 1.18 66.6685 1.32 66.6685 9.23C66.6685 15.98 66.6685 16.26 65.3382 16.52L63.9778 16.8V17.28H69.8994L69.7494 16.74V16.75ZM25.8972 4.91H25.5871L25.247 6.67C24.8969 8.12 24.4568 8.6 21.8961 8.73V9.31C24.4468 9.47 24.8869 10.02 25.4171 11.72L25.8972 13.51H26.2073C26.0072 11.53 25.8072 6.96 25.8972 4.92V4.91ZM51.0042 16.54L49.5338 16.82V17.3H55.3654L55.2053 16.62C55.0753 15.9 55.0053 14.42 55.0053 8.54C55.0053 1.45 55.1153 1.14 56.0256 1.03L58.0961 0.77V0.28H49.4437V0.76L50.8941 0.99C52.0845 1.19 52.1745 1.27 52.1745 9.27C52.1745 16.05 52.1445 16.3 51.0142 16.53L51.0042 16.54ZM62.0973 9.11L61.017 13.05C60.2367 15.27 59.6466 16.16 56.4657 16.61V17.31H61.8372C61.8672 14.98 62.2373 12.01 62.5774 9.14L62.0973 9.11ZM73.0703 0.28H70.9897V0.83C76.1412 0.88 78.3518 3.91 78.3518 9.36C78.3518 14.19 77.1914 15.9 70.9897 16.64V17.3H72.5001C78.0017 17.3 81.4026 13.44 81.4026 8.05C81.4026 3.29 78.7119 0.28 73.0603 0.28H73.0703ZM107.8 13.75C107.8 13.53 107.8 13.35 107.8 13.14L106.34 11.33V11.31C103.139 7.24 100.368 3.07 98.6874 0.28H92.3056V0.76L93.666 0.96C94.2762 1.07 94.7263 1.29 95.1464 1.6L95.1664 1.62L95.6466 2.05C95.9266 2.33 96.1867 2.64 96.4968 3.01C99.3576 6.72 104.869 14.3 107.28 17.64L107.85 17.61C107.82 16.84 107.79 15.17 107.79 13.75H107.8ZM102.578 0.28L102.548 0.76L105.329 1.13C106.56 1.34 107.04 1.9 107.24 10.36L107.8 11.15C107.85 2.18 108.2 1.22 109.3 0.94L110.121 0.77V0.28H102.578ZM99.0975 16.36C97.047 15.96 95.9466 14.72 95.7066 4.17H95.6866L95.1664 3.46C95.0564 15.38 94.8964 16.3 93.646 16.6L92.3656 16.83V17.31H102.268L102.298 16.83L99.0975 16.38V16.36ZM117.022 0.74C118.253 0.27 119.583 0 120.944 0C123.924 0 125.795 0.88 126.535 1.36C126.395 3.12 126.255 4.9 126.135 6.92H125.685L125.115 4.62C124.295 2.27 122.394 1.02 119.013 1.02C118.323 1.02 117.743 1.12 117.213 1.29L117.012 0.74H117.022ZM120.003 9.06L120.193 9.58L122.424 9.79C123.904 9.99 124.014 10.1 124.014 14.04C124.014 15.24 123.524 15.98 122.634 16.38L122.804 16.85L122.724 16.93L122.744 16.98C124.515 16.44 125.965 15.67 126.885 15.09C126.825 10.21 126.805 9.96 127.765 9.7L128.726 9.47V9.04C126.485 9.12 123.684 9.12 120.013 9.05L120.003 9.06ZM121.344 16.69C121.154 16.72 120.974 16.76 120.744 16.76C116.832 16.76 114.442 13.64 114.442 6.89C114.442 4.32 114.972 2.73 116.082 1.86L115.862 1.24C113.191 2.65 111.271 5.24 111.271 8.91C111.271 13.96 113.992 17.59 119.013 17.59C119.913 17.59 120.754 17.47 121.554 17.3L121.344 16.7V16.69ZM35.7799 40.38C34.8697 40.68 33.9094 40.9 32.8591 40.94C28.1278 41.16 24.9769 37.66 24.9869 32.29C24.9869 28.38 26.8375 25.52 30.0584 24.28C30.0584 24.3 30.0784 24.32 30.0784 24.35L30.0283 24.41C30.0984 24.61 30.1684 24.81 30.2384 25.01C28.888 25.84 28.2779 27.62 28.2779 30.97C28.2779 37.09 30.4485 40.19 34.4496 40.02C34.8597 40 35.2198 39.93 35.5799 39.83L35.7799 40.39V40.38ZM34.1895 23.55C33.0992 23.55 32.1189 23.71 31.1987 23.95C31.2687 24.16 31.3487 24.36 31.4187 24.57C31.8288 24.48 32.249 24.4 32.7691 24.4C36.4901 24.4 38.8108 27.33 38.8008 33.02C38.8008 36.33 38.1206 38.27 36.7702 39.24C36.8502 39.46 36.9403 39.69 37.0203 39.91C40.1612 38.37 42.1217 35.24 42.1217 31C42.1217 26.42 39.1809 23.56 34.1895 23.55ZM117.803 24.56C117.303 24.48 116.802 24.4 116.302 24.33C116.302 24.17 116.302 24.01 116.302 23.85C119.053 23.85 121.804 23.85 124.555 23.87C124.555 24.04 124.555 24.2 124.555 24.37C123.994 24.46 123.434 24.54 122.884 24.63C121.954 24.8 121.864 25.15 121.874 31.93C121.874 40.07 121.944 40.22 123.154 40.52C123.634 40.63 124.114 40.74 124.605 40.86C124.605 41.03 124.605 41.19 124.605 41.36C121.854 41.21 119.103 41.06 116.352 40.93C116.352 40.77 116.352 40.61 116.352 40.45C116.842 40.38 117.333 40.31 117.823 40.23C119.043 40.06 119.043 39.77 119.033 32.96C119.033 24.94 118.963 24.79 117.803 24.59V24.56ZM90.3651 31.35C90.3651 27.63 90.4051 25.85 90.5251 24.79H90.5151C90.5651 24.46 90.6152 24.14 90.6652 23.81C89.5249 23.81 88.3745 23.81 87.2342 23.81C87.2642 23.98 87.2842 24.15 87.3143 24.32H87.3243C87.4943 25.29 87.5543 27.2 87.5543 32.3C87.5543 38.74 87.5343 38.93 85.8238 39.23C85.3037 39.31 84.7835 39.39 84.2634 39.48C84.2634 39.63 84.2634 39.78 84.2634 39.94C87.3943 39.98 90.5251 40.04 93.656 40.11C93.656 39.96 93.676 39.8 93.686 39.65C93.1859 39.56 92.6857 39.47 92.1856 39.37C90.4551 39.01 90.3651 38.96 90.3651 31.36V31.35ZM114.552 40.16C113.562 39.62 112.531 37.15 109.971 31.55C108.89 29.17 106.99 25.21 106.099 23.21C105.909 23.21 105.719 23.21 105.529 23.21C105.049 24.23 104.609 25.18 104.189 26.09C104.279 26.28 104.369 26.46 104.459 26.65C105.109 27.89 107.92 33.9 107.93 33.91C108.89 36.08 109.951 38.63 109.951 39.16C109.951 39.75 109.52 39.9 108.65 39.95C108.11 39.98 107.57 40 107.03 40.03C107.03 40.19 107.03 40.34 107.03 40.5C109.67 40.6 112.311 40.71 114.942 40.83C114.942 40.67 114.942 40.51 114.942 40.35C114.812 40.29 114.682 40.22 114.542 40.16H114.552ZM23.5866 40.35C22.2862 40.15 22.1962 40.08 21.9261 32C21.676 25.13 21.676 24.83 22.8964 24.6C23.3865 24.51 23.8766 24.42 24.3668 24.34C24.3668 24.18 24.3668 24.01 24.3668 23.85C22.5063 23.85 20.6357 23.85 18.7752 23.86C18.7952 24.33 18.8152 24.8 18.8352 25.27C18.8953 26.1 18.9453 27.97 19.1153 32.95C19.3654 39.99 19.4754 40.33 17.7449 40.63C16.9447 40.77 16.1345 40.92 15.3343 41.06C15.3343 41.23 15.3343 41.39 15.3343 41.56C18.5452 41.36 21.7661 41.19 24.9769 41.02C24.9769 40.86 24.9769 40.7 24.9769 40.53C24.5168 40.47 24.0467 40.4 23.5866 40.34V40.35ZM17.7749 26.15C16.3045 29.81 15.0742 32.73 13.0636 37.25C10.913 33.16 9.04252 29.01 7.09198 23.89C4.88136 23.89 2.67075 23.9 0.450132 23.91V24.44C1.00028 24.52 1.55044 24.6 2.09059 24.68C2.71076 24.77 3.17089 24.89 3.54099 25.1C3.70103 25.22 3.86108 25.34 4.02112 25.46C4.27119 25.73 4.50126 26.07 4.73132 26.5C6.94193 30.74 9.57267 37.02 11.6432 41.8C11.7833 41.8 11.9233 41.78 12.0734 41.77C14.454 35.65 16.0145 31.79 17.835 27.56C17.815 27.09 17.7949 26.62 17.7749 26.15ZM6.18172 41.25C4.43124 40.96 4.16116 40.05 4.04113 26.83C3.85108 26.69 3.66102 26.55 3.47097 26.41C2.64074 40.42 2.60073 41.33 1.28036 41.75C0.860246 41.86 0.430126 41.98 0.0100098 42.09V42.62C2.91082 42.4 5.81162 42.19 8.71243 41.99V41.48C7.87219 41.4 7.03196 41.33 6.19173 41.25H6.18172ZM77.3115 36.52C77.3115 36.32 77.3115 36.14 77.3115 35.94C76.8213 35.37 76.3412 34.8 75.8511 34.23V34.21C72.6402 30.37 69.8794 26.44 68.1989 23.81C66.0684 23.81 63.9378 23.81 61.8172 23.81V24.26C62.2673 24.32 62.7274 24.38 63.1776 24.45C63.7877 24.56 64.2378 24.76 64.658 25.05L64.678 25.07C64.838 25.21 64.9981 25.34 65.1581 25.47C65.4382 25.74 65.6982 26.03 66.0083 26.38C68.8691 29.88 74.3807 37.01 76.7913 40.19C76.9814 40.19 77.1714 40.17 77.3615 40.17C77.3315 39.45 77.3015 37.87 77.3015 36.53L77.3115 36.52ZM72.09 23.81C72.09 23.96 72.07 24.11 72.06 24.26C72.9903 24.38 73.9105 24.49 74.8408 24.61C76.0711 24.81 76.5513 25.33 76.7613 33.32C76.9514 33.57 77.1414 33.82 77.3215 34.06C77.3715 25.6 77.7216 24.69 78.8119 24.42C79.082 24.37 79.362 24.31 79.6321 24.26C79.6321 24.11 79.6321 23.96 79.6321 23.81C77.1214 23.81 74.6007 23.81 72.09 23.81ZM68.5991 38.97C66.5485 38.6 65.4482 37.44 65.2081 27.47H65.1881C65.0181 27.25 64.838 27.03 64.668 26.8C64.5579 38.06 64.3879 38.93 63.1475 39.22C62.7174 39.3 62.2973 39.37 61.8672 39.45C61.8672 39.6 61.8672 39.75 61.8672 39.91C65.1681 39.87 68.469 39.86 71.7699 39.86C71.7699 39.71 71.7899 39.56 71.7999 39.41C70.7296 39.27 69.6593 39.13 68.5891 38.99L68.5991 38.97ZM55.4754 38.41C54.9053 38.77 54.135 38.94 53.0647 38.96C49.3737 39.03 47.8733 37.52 47.8733 33.49C47.8733 25.1 47.9333 24.69 48.9636 24.53C49.5538 24.45 50.1339 24.36 50.7241 24.28C50.7241 24.13 50.7241 23.97 50.7241 23.82C48.0233 23.82 45.3126 23.82 42.6118 23.82C42.6118 23.98 42.5918 24.13 42.5818 24.29C42.9919 24.35 43.3921 24.42 43.8022 24.48C44.9625 24.7 45.0825 24.86 45.0725 31.56C45.0725 32.93 45.0125 33.97 45.0125 34.9C45.0125 38.35 46.713 40.48 51.3643 40.37C53.2248 40.33 54.6252 39.78 55.6755 38.93C55.6054 38.76 55.5454 38.58 55.4754 38.41ZM53.2148 23.81C53.2148 23.96 53.2148 24.12 53.2148 24.27C53.7249 24.34 54.2351 24.41 54.7452 24.48C56.3957 24.83 56.8458 25.5 56.8358 34.17C56.8358 35.54 56.7058 36.5 56.4157 37.22C56.4957 37.44 56.5757 37.65 56.6657 37.87C57.486 36.73 57.9161 35.31 57.9161 33.72C57.9161 33.07 57.8661 31.84 57.8661 30.6C57.8661 24.98 58.0661 24.7 58.9464 24.49C59.3765 24.41 59.8166 24.33 60.2467 24.25C60.2467 24.1 60.2467 23.95 60.2467 23.79C57.9061 23.79 55.5554 23.79 53.2148 23.79V23.81ZM96.1867 23.81C94.7463 23.81 93.3159 23.81 91.8755 23.81C91.8455 24.03 91.8155 24.24 91.7755 24.46C94.1261 24.79 94.4362 25.42 95.1064 27.4C95.5565 28.78 95.9967 30.16 96.4468 31.55C96.5868 31.55 96.7269 31.55 96.8769 31.55C96.5568 28.87 96.3067 26.09 96.1867 23.8V23.81ZM86.0439 23.81C84.6435 23.81 83.2331 23.81 81.8327 23.81C81.6927 26.06 81.4126 28.8 81.0425 31.42C81.1825 31.42 81.3226 31.42 81.4626 31.42C81.9228 30.05 82.3929 28.69 82.853 27.32C83.5532 25.38 83.9433 24.72 86.1339 24.44C86.1039 24.23 86.0739 24.02 86.0439 23.81ZM104.999 33.79C105.549 33.8 106.069 33.83 106.59 33.86C106.53 33.7 106.48 33.55 106.42 33.4C105.959 33.4 105.499 33.4 104.989 33.38C103.939 33.36 102.919 33.34 101.898 33.26C102.408 31.71 103.099 29.92 103.869 28.11C103.769 27.9 103.659 27.7 103.559 27.49C99.4976 36.19 98.1373 39.3 97.227 39.59C97.107 39.63 96.9769 39.67 96.8569 39.72C96.8569 39.87 96.8569 40.03 96.8569 40.18C99.3376 40.25 101.818 40.32 104.289 40.41C104.289 40.25 104.289 40.1 104.289 39.94C103.689 39.86 103.079 39.77 102.468 39.69C101.358 39.52 100.828 39.01 100.818 37.88C100.818 37.17 101.158 35.67 101.748 33.78C102.739 33.74 103.849 33.77 104.979 33.79H104.999ZM141.699 38.58C141.699 38.34 141.699 38.14 141.699 37.91C141.209 37.22 140.729 36.54 140.239 35.87V35.85C137.038 31.28 134.267 26.82 132.587 23.87C130.456 23.87 128.336 23.87 126.205 23.86C126.205 24.03 126.205 24.19 126.205 24.36C126.655 24.43 127.115 24.5 127.565 24.57C128.176 24.69 128.626 24.92 129.046 25.24L129.066 25.26C129.226 25.41 129.386 25.56 129.546 25.71C129.826 26.01 130.086 26.34 130.396 26.73C133.267 30.6 138.769 38.91 141.179 42.79C141.369 42.79 141.559 42.79 141.749 42.8C141.719 41.96 141.689 40.14 141.689 38.59L141.699 38.58ZM136.478 23.88C136.478 24.05 136.458 24.22 136.448 24.39C137.378 24.53 138.298 24.66 139.229 24.8C140.459 25.03 140.939 25.64 141.149 34.85C141.339 35.14 141.519 35.44 141.709 35.73C141.759 25.96 142.109 24.91 143.2 24.61C143.47 24.55 143.75 24.49 144.02 24.43V23.9C141.509 23.9 138.989 23.89 136.478 23.88ZM132.997 40.84C130.946 40.29 129.846 38.92 129.596 27.91H129.576C129.406 27.67 129.226 27.41 129.056 27.16C128.956 39.57 128.796 40.52 127.555 40.75C127.135 40.8 126.705 40.86 126.285 40.91C126.285 41.08 126.285 41.24 126.285 41.41C129.586 41.6 132.877 41.81 136.178 42.04C136.178 41.87 136.198 41.7 136.208 41.53C135.138 41.3 134.067 41.07 133.007 40.84H132.997Z" fill="white"/>
</g>
<defs>
<clipPath id="clip0_556_1953">
<rect width="144" height="56" fill="white"/>
</clipPath>
</defs>
</svg>
