<svg id="logos" xmlns="http://www.w3.org/2000/svg" viewBox="0 0 432 166.03"><defs><style>.cls-1{fill:#231f20;}</style></defs><path class="cls-1" d="M253.17,46.72c4.21.22,7.64-3.33,7.42-7-.33-2.77-1.55-5-4.88-5.32s-6.31,3.32-6,7.42C249.84,44.39,251,46.27,253.17,46.72Z"/><path class="cls-1" d="M430.54,69.32c-3-2.55-6,.88-7.2,2.1-7.32,7.76-24.38,27-28.92,27-2.22,0-4.21-2.55-2.22-9.09.78-2.55,4.66-10.41,11.64-18.61,2.88-3.33,1.44-7.43-1.77-9.53-5.66-3.55-6.87-6.54-4.55-10.75.89-1.55.22-3.21-1.44-4.21a3.64,3.64,0,0,0-4.43.11,7.2,7.2,0,0,0-2,2.55c-6,11.52-15.07,19.5-24.16,29.58l-.11.14c-14.1,14.52-22.49,22.65-29.47,20.47-3.43-1.11-8.3-7.31-6-14,.67-1.88,12-2.55,19.39-7.2,9.53-6,11.41-16.07,6.43-21.16-3.33-3.44-10.53-3.44-15.4-1.11a10.5,10.5,0,0,0-2.88,1.55c-8,5.73-13.61,10.19-16.5,22.32-4.33,4.88-16.2,20.07-22.39,21.33,8.09-6.2,13.4-15.73,13.4-23.26,0-10-3-19.06-14.18-19.06-5.2,0-11,3.77-14.51,6.76a5,5,0,0,0,.22-.89c.78-3,1.44-5.76,1.11-8.64,0-1.33-.44-2.44-2.44-3.1a4.49,4.49,0,0,0-4,.77c-.44.67-.77,1.33-1.1,1.89-2.84,6.08-5.83,14.18-8.05,20.62a20.42,20.42,0,0,0-2.37,2.31c-9.42,10.19-17.06,19.06-22.93,19.06-7.09,0-.89-19.5,7-31.69,2-3.21,1-9.3-1.89-10.52-3.65-1.44-5.09,1-6.31,3.21-3.62,7.54-5.6,11.81-8.82,18.92C226,86,214.68,100,211.4,100c-3.55,0,1.44-15.74,2.1-18.39.89-3.33,8.2-20.83-4.43-20.83-9.08,0-18.17,9.64-22.16,17.5-.77,0,3.11-8.75,4.32-12.52,1.89-5.65-7.2-10-10.3-1.33-1.47,4.09-3.06,9.88-4.58,15.94C172.23,85.18,159.76,99,157.22,99s-1.88-6-1.66-7.87c.22-5.65,7.31-22,9.64-27.25.78-1.55,1.55-3.44-.77-4.77-1.78-1.1-3.77-1.1-5.1.23a21.71,21.71,0,0,0-3.21,4C144.37,79,127,96.9,124.21,96.9c-7.31,0,2.77-23,9.08-35.78,1.22-2.44-6.53-7.31-9.53-1.77-1.92,3.6-4.29,7.34-6.39,11.47-1.1.93-2.26,2.13-3.58,3.48-8.75,9-18.94,13-29.47,16.07.78-.33,2.66-5,3.11-5.87,4.1-7,6.64-11.64,11.07-19.5,5.21-9.2,8.2-14.74,12.41-23.27,4.1-8.2,8.76-17.39,13.41-26.37,1.88-3.43,4-8,4.1-10.3.33-6.54-5.76-6.09-8.75-2.33-6.76,8.31-15.18,9-23.82,10.31-9.53,1.55-17.18,2.43-24.6,6.42-8.42,4.43-12.19,10.75-13,18.28-.33,3.1.33,11.08,5.76,12.63,2.77.67,6.09-2.21,5.54-5.09-.56-3.33-3-4.21-2.77-7.09.44-5.88,4.87-8.65,8.31-10.75,5-3,8.42-3.1,13-3.88,9.64-1.77,16.29-1.88,25-5.54.11.56-1.66,3.21-1.77,3.44-3.11,6.2-7.54,14.62-10.2,19.83-3.1,5.87-6.31,12.18-9.52,18.06-4,7.53-6.32,11.19-10,17.94-1.88,3.77-5.53,10.53-8.75,14.52-2.32,2.88-15.4,4.32-20,5.65-8,2.32-13.3,3.32-20.16,6.53a51.59,51.59,0,0,0-17,11.3A52.46,52.46,0,0,0,4.11,132.36c-3.65,8.08-5.65,14.73-2.66,23.26a15.29,15.29,0,0,0,5.65,7.2c2.22,1.33,9.86,4.32,15.85,2.77,11.63-3,20.05-14.29,27.36-23.93,2.66-3.54,4.88-6.76,8.09-11.19,1.33-1.77,4.21-5.43,5.76-7.75,3.54-5.21,6.43-9.75,9.86-15.18,1.88-3.1,2.33-5.87,6.2-7.09,3.22-1.11,6.43-1.33,10.42-2.66,10.74-3.48,15.82-5.54,21.66-10.46-.1,1.09-.17,2.21-.17,3.37,0,7.87,3.77,17.06,11.86,15.62,5.2-.89,8.75-4.54,12.63-7.64,2.32-2,6.2-7.09,10.3-10.75l.33.55c0,2.44-.33,4.77-.22,7.21-.11,4.76.55,12,5.65,12,6.57,0,11-2.88,20.08-12-.32,1.42-.63,2.79-.91,4.06-.78,3.66-2.44,6.76,3.43,7.65,4.66.66,6.54-3,7.87-6.21,2.77-6.87,16.95-29,21.16-29,7.09,0-14.51,36.89,4.54,36.89,8.07,0,13.9-6.37,21.68-15.78,0,.53,0,1.06,0,1.6.23,7.42,5.77,12.63,13.08,12.85,5.65-.11,10.41-3.66,13.51-7.2,2.27-2.55,4.11-4.58,5.94-6.57-3.66,10.12-8.71,22.36-9.59,24.3-4.43,11.07-7.42,19.83-12.63,32.68-.89,2.1-1.89,7.2,1.66,7.86,6.2,1.22,7.09-3.21,10.64-11.07,2.54-5.77,13.18-31.91,17.5-44.65a17.55,17.55,0,0,0,6.2,3.76,49.78,49.78,0,0,0,14.07,2.77c13.32-.07,22.54-9.17,29.47-17,1.61,7.7,6.78,13.79,12.86,14.84,16.5,2.77,24.26-8.53,37.11-22.16l.23-.25,1.21-1.19c5.54-5.65,11.41-11.3,16.06-18,1.89-2.55,4.1-.55,6.43,1,2.1,1.44.89,2.55-.11,4-1.33,1.88-2.66,3.65-3.88,5.54a57.16,57.16,0,0,0-7.2,14.51c-2.55,8.2,1.22,16.06,7.64,16.06,11.31,0,28.92-20.05,40.11-31.46A4.24,4.24,0,0,0,430.54,69.32Zm-98.05,4.32c3.21-6.65,7-8.75,14.18-11.41,5.32-1.66,6,1.22,1.77,6-2.1,2.44-6.2,4.65-13.84,6.54C333.49,75,331.6,75.52,332.49,73.64ZM63.16,108a163,163,0,0,1-16.28,23.38c-6.87,8.31-13.19,17.95-21.83,23.49-4.54,2.88-10.19,4.1-14.4-.78C7.77,150.75,9.1,145,11.09,139a47.24,47.24,0,0,1,7.42-13.62,51.53,51.53,0,0,1,13.85-11.64c3.66-1.88,11.08-4.32,15.62-5.65,5.1-1.44,11.08-2.77,17.73-4.21C63.83,107,65.71,104,63.16,108ZM282,100.56a8.1,8.1,0,0,1-7.53-8.31l2.32-6.76c4.66-9.41,11.3-18.5,20.06-18.5,3.76,0,6.2,3.88,6.2,8.86C303,88.59,290.94,100.56,282,100.56Z"/><path class="cls-1" d="M96.51,126.07c2.53,0,5.31.35,7.62,2.4a8.89,8.89,0,0,1,2.82,7,9.31,9.31,0,0,1-2.48,6.83c-2.3,2.35-5.35,2.57-7.39,2.57H93v10.18h-6.7v-29ZM93,139.43h2.39A5.13,5.13,0,0,0,99,138.34a4,4,0,0,0,1.09-2.87A3.8,3.8,0,0,0,99,132.64a5.21,5.21,0,0,0-3.74-1.09H93Z"/><path class="cls-1" d="M122.9,126.07v29h-6.7v-29Z"/><path class="cls-1" d="M142.72,149.43h12.44v5.66H131.71l13.92-23.36H134v-5.66h22.62Z"/><path class="cls-1" d="M174.59,149.43H187v5.66H163.59l13.92-23.36H165.85v-5.66h22.62Z"/><path class="cls-1" d="M215.2,149.6h-11L202,155.09h-7l11.7-29h6.13l11.44,29h-7Zm-1.83-5.13-3.57-9.74-3.61,9.74Z"/><path class="cls-1" d="M290.1,126.07c2.53,0,5.31.35,7.62,2.4a8.89,8.89,0,0,1,2.82,7,9.31,9.31,0,0,1-2.48,6.83c-2.3,2.35-5.35,2.57-7.39,2.57h-4.09v10.18h-6.7v-29Zm-3.52,13.36H289a5.13,5.13,0,0,0,3.61-1.09,4,4,0,0,0,1.09-2.87,3.8,3.8,0,0,0-1.09-2.83,5.21,5.21,0,0,0-3.74-1.09h-2.26Z"/><path class="cls-1" d="M316.49,126.07v29h-6.7v-29Z"/><path class="cls-1" d="M343.54,131.73h-9.7v5.61h9.23V143h-9.23v6.44h9.7v5.66H327.15v-29h16.39Z"/><path class="cls-1" d="M369.07,133.16a7.12,7.12,0,0,0-4.87-2.09,3.63,3.63,0,0,0-2.83,1,2.55,2.55,0,0,0-.74,1.82,2,2,0,0,0,.65,1.61c.7.65,1.7.92,3.66,1.65l2.17.83a11.63,11.63,0,0,1,4,2.22,7.26,7.26,0,0,1,2.13,5.39,10.38,10.38,0,0,1-2.57,7.18c-2.56,2.7-6.3,3-8.22,3a12.33,12.33,0,0,1-5.74-1.22,18.22,18.22,0,0,1-4.26-3.18l3.48-4.78a18,18,0,0,0,2.69,2.22,6.83,6.83,0,0,0,3.66,1,4.59,4.59,0,0,0,3-1,3,3,0,0,0,1.05-2.35,2.55,2.55,0,0,0-1-2.08,13.83,13.83,0,0,0-3.4-1.61l-2.39-.83a9.74,9.74,0,0,1-4-2.31,7.09,7.09,0,0,1-1.74-5,8.93,8.93,0,0,1,2.52-6.53,9.36,9.36,0,0,1,7.18-2.65,14,14,0,0,1,8.61,2.87Z"/></svg>