<svg id="Logos" xmlns="http://www.w3.org/2000/svg" viewBox="0 0 471.46 216"><defs><style>.cls-1{fill:#2d2a26;}</style></defs><rect class="cls-1" x="167.44" width="45.57" height="7.61"/><path class="cls-1" d="M191.19,40.3H178.14v7.8h12.09V56H178.14V72.76h-9.31V32.45h22.36Z"/><path class="cls-1" d="M231.62,37.4a21.44,21.44,0,0,1,0,30.34c-3.75,3.63-8.82,5.92-15.59,5.92a22.16,22.16,0,0,1-15.71-5.92,20.58,20.58,0,0,1-6.29-15,22.5,22.5,0,0,1,6.23-15.29C203,34.74,208,31.54,216,31.54,222.32,31.54,227.57,33.47,231.62,37.4Zm-24.47,6.17a12.31,12.31,0,0,0-3.57,9.12,12,12,0,0,0,3.69,9.07,11.88,11.88,0,0,0,8.64,3.32,11.91,11.91,0,0,0,12.45-12.45,12.66,12.66,0,0,0-3.51-9.06A12.88,12.88,0,0,0,216,40.12,12.33,12.33,0,0,0,207.15,43.57Z"/><path class="cls-1" d="M251.38,32.45V64.9h12.51v7.86H242.08V32.45Z"/><path class="cls-1" d="M280.45,32.45c5.32,0,10.94.78,15.9,5.56a19.24,19.24,0,0,1,5.8,14.44c0,6.35-2.18,10.94-5.5,14.26-5.56,5.62-12.51,6.05-15.9,6.05H267.7V32.45ZM277,64.9h2.47c1.94,0,6.17-.18,9.19-2.72,2.18-1.81,3.93-5.26,3.93-9.73a11.89,11.89,0,0,0-3.33-8.7c-3-3-6.95-3.45-9.79-3.45H277Z"/><path class="cls-1" d="M315.68,32.45V72.76h-9.3V32.45Z"/><path class="cls-1" d="M322.21,72.76V32.45h8.1l21.88,26v-26h9.31V72.76h-8.11L331.52,46.65V72.76Z"/><path class="cls-1" d="M388.51,50.76h20v.42c0,4.9-1.75,12.33-6.23,17s-9.6,5.5-14.38,5.5-10-.78-14.74-5.62a21.36,21.36,0,0,1-5.93-15.35A21.54,21.54,0,0,1,373,37.4c5-5.14,11.06-5.86,15.84-5.86a20.3,20.3,0,0,1,11.3,3,22.33,22.33,0,0,1,6.53,7.19l-8.4,4.54a12.24,12.24,0,0,0-3.57-4.36A10.1,10.1,0,0,0,388.57,40a10.91,10.91,0,0,0-8.34,3.26,13.81,13.81,0,0,0-3.45,9.55c0,4.6,1.7,7.56,3.39,9.25a10.57,10.57,0,0,0,8.16,3.14c4,0,6.1-1.39,7-2.17a9.54,9.54,0,0,0,2.9-4.78h-9.73Z"/><path class="cls-1" d="M167,128.15l6.46-40.31h7.74l10,24.12,10-24.12H209l6.47,40.31h-9.31l-3.2-24.05-10.1,24.05h-3.26L179.47,104.1l-3.21,24.05Z"/><path class="cls-1" d="M254.71,92.8a21.46,21.46,0,0,1,0,30.34c-3.75,3.62-8.83,5.92-15.59,5.92a22.19,22.19,0,0,1-15.72-5.92,20.63,20.63,0,0,1-6.28-15,22.52,22.52,0,0,1,6.22-15.29c2.72-2.72,7.74-5.92,15.78-5.92C245.4,86.94,250.66,88.87,254.71,92.8ZM230.23,99a12.39,12.39,0,0,0-3.56,9.13,12,12,0,0,0,3.68,9.06,11.85,11.85,0,0,0,8.64,3.33,12.21,12.21,0,0,0,8.95-3.45,12.07,12.07,0,0,0,3.51-9A12.75,12.75,0,0,0,247.94,99a13,13,0,0,0-8.88-3.44A12.41,12.41,0,0,0,230.23,99Z"/><path class="cls-1" d="M299.13,111.72c0,3.86-.49,8.64-4.48,12.75s-8.34,4.59-12.57,4.59-8.7-.6-12.57-4.59S265,115.58,265,111.72V87.84h9.31v23.63c0,1.76.12,4.72,2.11,6.77a8.51,8.51,0,0,0,11.24,0c2-2,2.12-5,2.12-6.77V87.84h9.31Z"/><path class="cls-1" d="M304.81,128.15V87.84h8.09l21.88,26v-26h9.31v40.31H336l-21.88-26.1v26.1Z"/><path class="cls-1" d="M365.24,95.7v32.45h-9.31V95.7h-8.76V87.84H374V95.7Z"/><path class="cls-1" d="M399.08,120.54H383.85l-3.08,7.61H371.1l16.26-40.31h8.52l15.89,40.31H402.1Zm-2.54-7.13-5-13.54-5,13.54Z"/><path class="cls-1" d="M425.65,87.81v40.31h-9.3V87.81Z"/><path class="cls-1" d="M432.18,128.12V87.81h8.1l21.87,26v-26h9.31v40.31h-8.1L441.49,102v26.11Z"/><path class="cls-1" d="M181.16,143.24c2.18,0,7.13.12,10.27,3.09a10.38,10.38,0,0,1,2.9,7.61,9.55,9.55,0,0,1-1.32,5.14,7.38,7.38,0,0,1-3.39,3,10.5,10.5,0,0,1,5.56,2.72,9.82,9.82,0,0,1,2.6,7.19,11,11,0,0,1-3.14,8.16c-3.33,3.2-8.16,3.44-10.64,3.44H168.83V143.24ZM178,159.62h1.51a8.6,8.6,0,0,0,4.71-1.15,4.25,4.25,0,0,0,1.63-3.56,4.1,4.1,0,0,0-1.57-3.39c-1.33-1-3.14-1-4.83-1H178Zm0,16.68h2.23c2.36,0,5.2-.06,6.89-1.63a4.44,4.44,0,0,0,1.33-3.38A4.33,4.33,0,0,0,187.2,168c-1.63-1.51-4.77-1.51-6.64-1.51H178Z"/><path class="cls-1" d="M216,143.24c5.14,0,8.34,1.69,10.27,3.51a12.15,12.15,0,0,1,3.51,9A11,11,0,0,1,226.6,164a12.56,12.56,0,0,1-5.62,3.08l12.39,16.5H222l-10.88-15.89v15.89h-9.3V143.24Zm-4.84,18.31h2.12c1.69,0,4-.18,5.56-1.75a5.43,5.43,0,0,0,1.51-3.93,4.93,4.93,0,0,0-1.87-4.11c-1.51-1.14-3.93-1.26-5.14-1.26h-2.18Z"/><path class="cls-1" d="M260.88,151.1H247.4v7.8h12.81v7.85H247.4v8.95h13.48v7.85H238.09V143.24h22.79Z"/><path class="cls-1" d="M273.93,143.24,282.51,170l8.58-26.72h6.41L306.08,170l8.58-26.72h9.67l-13.72,40.31h-7.85l-8.46-24.47-8.46,24.47H278l-13.72-40.31Z"/><path class="cls-1" d="M337.75,143.24v40.31h-9.31V143.24Z"/><path class="cls-1" d="M344.28,183.55V143.24h8.09l21.88,26v-26h9.31v40.31h-8.1l-21.88-26.1v26.1Z"/><path class="cls-1" d="M410.57,161.55h20V162c0,4.89-1.75,12.33-6.22,17s-9.61,5.5-14.38,5.5-10-.79-14.75-5.62a23,23,0,0,1-.12-30.64c5-5.14,11.06-5.86,15.83-5.86a20.31,20.31,0,0,1,11.31,3,22.2,22.2,0,0,1,6.52,7.19l-8.4,4.53a12.16,12.16,0,0,0-3.56-4.35,10.13,10.13,0,0,0-6.17-1.93,10.94,10.94,0,0,0-8.34,3.26,13.83,13.83,0,0,0-3.44,9.55c0,4.59,1.69,7.55,3.38,9.25a10.63,10.63,0,0,0,8.16,3.14c4,0,6.11-1.39,7-2.18a9.36,9.36,0,0,0,2.9-4.77h-9.73Z"/><rect class="cls-1" x="167.44" y="208.38" width="45.57" height="7.62"/><polygon class="cls-1" points="61.6 92.75 69.35 92.75 69.35 79.26 81.59 79.26 81.59 72.95 69.35 72.95 69.35 66.69 82.4 66.69 82.4 60.38 61.6 60.38 61.6 92.75"/><polygon class="cls-1" points="81.76 136.3 84.42 155.62 92.18 155.62 86.79 123.25 80.35 123.25 72 142.61 63.65 123.25 57.21 123.25 51.82 155.62 59.57 155.62 62.24 136.3 70.64 155.62 73.36 155.62 81.76 136.3"/><path class="cls-1" d="M0,0V216H144V0ZM12.26,104.15,72,14.54l59.74,89.61Zm119.48,7.7L72,201.46,12.26,111.85ZM8.2,7.91H66.73L8.2,95.71Zm0,200.18v-87.8l58.53,87.8Zm127.6,0H77.27l58.53-87.8ZM77.27,7.91H135.8v87.8Z"/></svg>