<svg id="Layer_1" data-name="Layer 1" xmlns="http://www.w3.org/2000/svg" viewBox="0 0 600 366.18"><defs><style>.cls-1{fill:#231f20;}</style></defs><path class="cls-1" d="M12.56,281.55V240.07a1.43,1.43,0,0,1,1.28-1.41l7-.75a7.07,7.07,0,0,0,5.93-4.67l3.79-10.62A1.49,1.49,0,0,1,31,222l2.71-2.31a3.54,3.54,0,0,1,5.73,1.81l.07.29a2,2,0,0,0,3.73.53l15-25.61A11.75,11.75,0,0,1,63,192.24l11.42-5.92a1.54,1.54,0,0,0,.36-.27L94,166.32a1.41,1.41,0,0,1,1-.43h3.07a1.43,1.43,0,0,0,1.1-.52l18.66-22.81a1.41,1.41,0,0,1,1.1-.52h9a10.34,10.34,0,0,0,7.2-2.91l25.77-24.89a10.1,10.1,0,0,1,7-2.83h11.67a1.44,1.44,0,0,0,.93-.34l10.3-8.9a1.41,1.41,0,0,1,2.11.3l4.71,7.16a1.42,1.42,0,0,0,1.72.54l13.3-5.32a1.42,1.42,0,0,1,1.56,2.29l-17.88,19.07a1.42,1.42,0,0,1-2.46-.95l-.17-9.74a1.43,1.43,0,0,0-1.87-1.33l-13.46,4.49a1.17,1.17,0,0,0-.3.14l-35.47,21.67a18.35,18.35,0,0,0-5.64,5.42l-9.17,13.76a1.42,1.42,0,0,1-2.6-.82l.1-5.31a1.42,1.42,0,0,0-2.39-1.06l-21.27,20a1.42,1.42,0,0,0,1,2.46l6.52.11a1.42,1.42,0,0,1,.55,2.72L76.49,192.25a3.1,3.1,0,0,0-.38,5.47l12.18,7.56a6,6,0,0,0,7.61-1l2.72-2.94a.36.36,0,0,1,.63.26l-.83,19.32a2.07,2.07,0,0,0,3.44,1.63l18.73-16.8a2.43,2.43,0,0,1,4,1.74h0a2.42,2.42,0,0,0,3.81,1.91l17-12a1.46,1.46,0,0,1,1-.25l4.61.63a1.43,1.43,0,0,0,1.31-.52l5.16-6.46a1.43,1.43,0,0,1,1.93-.27l5.55,3.91a1.45,1.45,0,0,0,1.42.13l9.45-4.38a1.4,1.4,0,0,1,1.62.3l5,5.17a1.42,1.42,0,0,0,2.12-.08l9.1-11a1.38,1.38,0,0,1,1.17-.51l14.5.75a1.42,1.42,0,0,0,.91-.28l21.24-15.62a1.42,1.42,0,0,1,2,2L224,184.32a83.09,83.09,0,0,1-16.8,17.57L177.52,225a1.42,1.42,0,0,0,1.46,2.42l26.41-11.89a6.57,6.57,0,0,1,6.82.86l.1.08a1.41,1.41,0,0,0,1.68.06l13.66-9.3a4.58,4.58,0,0,1,6.59,1.59l3.95,7.28a1.44,1.44,0,0,0,1.27.75l29-.26a1.4,1.4,0,0,0,1.34-1l.55-1.71a4.11,4.11,0,0,1,5.33-2.61l11.82,4.31a1.41,1.41,0,0,0,1.78-.74l9.32-20.1a2.43,2.43,0,0,1,3.64-.94l4.77,3.49a1.39,1.39,0,0,0,.94.27l14.69-1a1.41,1.41,0,0,1,.93.27l18,13.08a1.43,1.43,0,0,0,2.11-.52l3-5.93a1.42,1.42,0,0,1,1.87-.66l25.18,11.75a1.42,1.42,0,0,0,2-1.28v-1.12a1.42,1.42,0,0,1,2.43-1L396,228.92a1.42,1.42,0,0,0,2.42-1V210.73a1.42,1.42,0,0,1,2.54-.88c2.35,3,5.6,7,6.27,7,1,0,18-5.73,20.12-6.43a1.35,1.35,0,0,1,.44-.07h7.48a1.42,1.42,0,0,1,.77.23l8.52,5.51a1.54,1.54,0,0,0,.76.23l56.67.5a18,18,0,0,0,7-1.35h0a14.72,14.72,0,0,1,11.64.19l23.38,10.53a1.42,1.42,0,0,0,1.62-2.26L528.15,205a1.44,1.44,0,0,0-.9-.45l-12.45-1.24a1.46,1.46,0,0,1-.93-.48L498.29,185a1.44,1.44,0,0,0-1.45-.44l-2.12.58,5.34,7.31a1.43,1.43,0,0,1-1.35,2.25l-3.75-.54a1.41,1.41,0,0,1-.85-.46l-35.57-39.54a1.4,1.4,0,0,0-1-.47l-16.63-.52a1.4,1.4,0,0,1-.71-.21l-11.07-6.83a1.41,1.41,0,0,0-2,.59l-2.41,5a1.42,1.42,0,0,0,.25,1.6l6.12,6.33a1.42,1.42,0,0,1-.1,2.07l-1.39,1.17a1.41,1.41,0,0,1-1.9-.06l-10.26-9.9a10.83,10.83,0,0,0-10-2.73l-12.87,3.09a1.43,1.43,0,0,1-1.76-1.33l-.43-11.84a1.43,1.43,0,0,1,1.28-1.47l1.67-.17a6.43,6.43,0,0,0,5.67-5.33h0a6.42,6.42,0,0,0-1.85-5.65l-6.12-6a16.9,16.9,0,0,0-8.73-4.53l-2.35-.44a14.1,14.1,0,0,0-8.21.94l-2.31,1a12.06,12.06,0,0,0-7.2,10.29h0a1.42,1.42,0,0,1-1.42,1.33h-1a1.41,1.41,0,0,1-1.42-1.44l.24-15.53a1.57,1.57,0,0,0-.17-.7l-9.58-17.7a1.42,1.42,0,0,1,2-1.86l25.68,17a1.35,1.35,0,0,0,.44.2l9.52,2.33a12.21,12.21,0,0,1,6,3.5l21.74,23.18a1.46,1.46,0,0,0,1.09.45l13.29-.5a1.34,1.34,0,0,1,.8.21l9.33,5.8a1.4,1.4,0,0,0,.72.21l9.63.2a10,10,0,0,1,5.86,2L480,165a10,10,0,0,1,3,3.71l4,8.44a1.38,1.38,0,0,0,1.12.8l4.09.46-.27-3.25,5.15.24a1.42,1.42,0,0,1,.93.41L518.31,196a1.37,1.37,0,0,0,.63.36l6.49,1.75a1.94,1.94,0,0,1,.36.15l37.37,22.14a10.21,10.21,0,0,1,5,8.79v52.38a1.41,1.41,0,0,1-1.42,1.42H14A1.42,1.42,0,0,1,12.56,281.55ZM138,161.34l6.72,8.44a7.05,7.05,0,0,0,6.51,2.6l13-1.8a.62.62,0,0,0,.12-1.2l-25.65-9A.62.62,0,0,0,138,161.34Zm110.56,18.12-.78,1.47a9.23,9.23,0,0,0-1.08,4.33v12.1a7.3,7.3,0,0,0,7.29,7.29h7.59a7.06,7.06,0,0,0,5.67-2.85l4.12-5.56a1.55,1.55,0,0,0-.14-2l-15.78-15.78A4.33,4.33,0,0,0,248.59,179.46Zm42.35,2.19-11.74,8.24a1,1,0,0,0,.44,1.83l11.74,1.65a1,1,0,0,0,1.16-1v-9.89A1,1,0,0,0,290.94,181.65ZM229.8,95l9.36,15.19a11.35,11.35,0,0,1,1.4,8.44L238,129.83a.8.8,0,0,0,1.27.81l10.13-7.87a16.07,16.07,0,0,1,4.53-2.46l10-3.5a.77.77,0,0,0,0-1.47l-13.71-4a11.42,11.42,0,0,1-4.3-2.37L230,94.86A.11.11,0,0,0,229.8,95Zm79.81,28.07,28.46-23.85-18.7,2.17-11.11-5.15-31.9,16.55a7.68,7.68,0,0,0-4.15,6.82v.46a7.68,7.68,0,0,0,2,5.21l7.46,8.09,1.61,4.91a5.88,5.88,0,0,0,6.28,4l20.56-2.42,15.45,4.88h4A17,17,0,0,1,342,150.09l12.44,13.19a11.06,11.06,0,0,0,7,3.41l10.15.95a12.65,12.65,0,0,1,7.6,3.49l12,11.56h40.65l32.26,13.56h12.74v-4.34l-10.57-7.59-26-3.79-50.69-17.35-10.29-1.9-14.42-11.42a40.81,40.81,0,0,0-9.94-5.82l-33.66-13.72a21.21,21.21,0,0,0-13.28-.91l-12.73,3.25a8.28,8.28,0,0,1-8.23-2.49l-6.47-7.2a4.11,4.11,0,0,1-.39-5h0a4.11,4.11,0,0,1,3.62-1.87l10.53.44,13.52-9.1a.67.67,0,0,1,1,.52ZM44.38,333l14.43-32.77H71v1.34H69.51a9.68,9.68,0,0,0-3.83.48,2.51,2.51,0,0,0-1.21,1.8,36.38,36.38,0,0,0-.31,6.25v19.43a50.41,50.41,0,0,0,.23,6.12,3.18,3.18,0,0,0,1.19,2.15,6.61,6.61,0,0,0,3.63.7H71v1.34H52v-1.34h1.41a6.88,6.88,0,0,0,3.49-.64,3,3,0,0,0,1.26-2,43.42,43.42,0,0,0,.27-6.32V304.27L42.77,339.79H41.4L25.6,304.27v23.19a45.87,45.87,0,0,0,.29,6.49,5,5,0,0,0,1.81,3A7.07,7.07,0,0,0,32,338.45v1.34H17.79v-1.34a7.24,7.24,0,0,0,4.14-1.39A5,5,0,0,0,23.87,334a41.33,41.33,0,0,0,.35-6.72V310.05a39.62,39.62,0,0,0-.28-6.11,2.7,2.7,0,0,0-1.16-1.9,9.18,9.18,0,0,0-3.9-.52H17.79v-1.34H29.86Zm34.56-9.35a15.22,15.22,0,0,1,5-11.87,17.68,17.68,0,0,1,12.34-4.48,18.17,18.17,0,0,1,12.48,4.43c3.34,3,5,7,5,12.09a15.86,15.86,0,0,1-4.8,12q-4.78,4.61-12.61,4.6a17.45,17.45,0,0,1-12.49-4.6Q78.94,331.19,78.94,323.6Zm5.4.17q0,7.69,3.07,11.57t9.23,3.86a10.4,10.4,0,0,0,8.52-3.86q3.14-3.87,3.14-11.52,0-7.45-3.09-11.42t-8.95-4q-5.78,0-8.85,3.88T84.34,323.77Zm61-15.93H156v1.09a5.76,5.76,0,0,0-3.17.95,3.3,3.3,0,0,0-1.29,1.82,21,21,0,0,0-.23,3.94v10.63a42,42,0,0,1-.32,6.05,8.31,8.31,0,0,1-1.84,3.89,10.39,10.39,0,0,1-4.28,3,16.68,16.68,0,0,1-6.36,1.13,16.25,16.25,0,0,1-7.22-1.45,9.24,9.24,0,0,1-4.21-3.75,12.69,12.69,0,0,1-1.27-6.16l0-3.27v-9.94a32.12,32.12,0,0,0-.23-4.93,2.11,2.11,0,0,0-.94-1.53,7.41,7.41,0,0,0-3.14-.42h-.73v-1.09h14.58v1.09h-.64a8,8,0,0,0-3.08.38,2.08,2.08,0,0,0-1,1.45,29.42,29.42,0,0,0-.25,5.05v10.05a38.4,38.4,0,0,0,.49,7.43,6.48,6.48,0,0,0,2.72,3.83,9.88,9.88,0,0,0,6,1.63,12.61,12.61,0,0,0,5.31-1.09,8.65,8.65,0,0,0,3.56-2.74,7.8,7.8,0,0,0,1.42-3.36,39.78,39.78,0,0,0,.26-5.46V315.22a16.29,16.29,0,0,0-.3-3.8,3,3,0,0,0-1.32-1.72,7.15,7.15,0,0,0-3.21-.77Zm47.47,32.68-22.59-29.95v22.18a15.13,15.13,0,0,0,.27,3.62A3,3,0,0,0,172,338a7.82,7.82,0,0,0,3.82.74v1.08H163.89v-1.08a8.51,8.51,0,0,0,3.48-.84,2.7,2.7,0,0,0,1.43-1.45,17.73,17.73,0,0,0,.22-3.67V315.81a22.48,22.48,0,0,0-.34-4.93,2.29,2.29,0,0,0-1.08-1.6,9.46,9.46,0,0,0-3.31-.35v-1.09h9.42l18.92,25V313.73a7.16,7.16,0,0,0-.43-3,3.1,3.1,0,0,0-1.78-1.34,9.38,9.38,0,0,0-3.23-.49v-1.09h11.59v1.09a8.61,8.61,0,0,0-3.19.77,2.86,2.86,0,0,0-1.48,1.48,9,9,0,0,0-.32,2.9v26.44Zm15.09-25h-1.09l.17-7.68h31l.17,7.68h-1a12.24,12.24,0,0,0-1.49-4.56,3.94,3.94,0,0,0-2-1.72,15.09,15.09,0,0,0-3.7-.31h-5.14v22.54a41.55,41.55,0,0,0,.18,4.93,2.51,2.51,0,0,0,.95,1.74,5.27,5.27,0,0,0,2.92.57h1.56v1.08H214.43v-1.08h1.65a5.59,5.59,0,0,0,2.84-.52,2.45,2.45,0,0,0,1-1.62,33.72,33.72,0,0,0,.23-5.1V308.93h-4.74a18.57,18.57,0,0,0-4.15.29,3.76,3.76,0,0,0-2,1.78A12.64,12.64,0,0,0,207.86,315.52ZM262.76,328H250.62l-.82,2c-1.23,2.93-1.84,4.85-1.84,5.74a2.54,2.54,0,0,0,1,2.18,4,4,0,0,0,2.51.75v1.08H242v-1.08a5.1,5.1,0,0,0,3.16-1.5,18.67,18.67,0,0,0,2.5-4.91c.07-.24.45-1.15,1.13-2.74L258,307.39h.92l10.67,25.38,1.46,3.34a4.46,4.46,0,0,0,1.33,1.78,4.82,4.82,0,0,0,2.51.82v1.08H262.36v-1.08a9.22,9.22,0,0,0,3.12-.35,1.31,1.31,0,0,0,.81-1.35,13.81,13.81,0,0,0-1.08-3.09Zm-.4-1.06-5.66-13.62L251.07,327Zm20.23-18v-1.09h14.6v1.09h-.68a8,8,0,0,0-3.08.38,2.05,2.05,0,0,0-1,1.45,29.42,29.42,0,0,0-.25,5.05v15.66a41.4,41.4,0,0,0,.18,4.94,2.48,2.48,0,0,0,.94,1.73,5.27,5.27,0,0,0,2.93.57h.94v1.08h-14.6v-1.08h.94a5.59,5.59,0,0,0,2.84-.52,2.37,2.37,0,0,0,1-1.62,36.39,36.39,0,0,0,.21-5.1V315.81a34.66,34.66,0,0,0-.21-4.93,2.11,2.11,0,0,0-.94-1.53,7.52,7.52,0,0,0-3.16-.42Zm51.69,31.59-22.6-29.95v22.18a15.13,15.13,0,0,0,.27,3.62,3,3,0,0,0,1.55,1.6,7.82,7.82,0,0,0,3.82.74v1.08H305.39v-1.08a8.52,8.52,0,0,0,3.49-.84,2.68,2.68,0,0,0,1.42-1.45,17.46,17.46,0,0,0,.23-3.67V315.81a22.48,22.48,0,0,0-.34-4.93,2.3,2.3,0,0,0-1.09-1.6,9.38,9.38,0,0,0-3.31-.35v-1.09h9.43l18.92,25V313.73a7.13,7.13,0,0,0-.44-3,3.07,3.07,0,0,0-1.78-1.34,9.34,9.34,0,0,0-3.23-.49v-1.09h11.6v1.09a8.67,8.67,0,0,0-3.2.77,2.9,2.9,0,0,0-1.48,1.48,9.3,9.3,0,0,0-.32,2.9v26.44ZM8.51,101Q-2.57,82.56.78,65.36A37.81,37.81,0,0,1,19.16,39.11a38.6,38.6,0,0,1,32-4.24q16.83,4.91,28.3,24,11.12,18.48,8.26,35.79T69,121.51q-15.48,9.31-32.28,3.84T8.51,101Zm11.22-6.19q11.55,19.18,23.59,25t24.54-1.66q11-6.6,11.55-20.06T68.51,65.59Q57.35,47.05,45.13,40.94T21,42Q9.24,49.08,8.8,62.48T19.73,94.79ZM202.42,48l2-.48,3,17.91-46.9,11.1L160,74.6l1.17-.28c2.81-.66,4.54-1.47,5.18-2.41a5.18,5.18,0,0,0,.88-3.23,64.22,64.22,0,0,0-1.75-8.92L159,32a64.72,64.72,0,0,0-2.37-8.43,4.1,4.1,0,0,0-2.31-2.48c-1-.34-2.83-.19-5.56.46l-.45-1.92L188.72,10l4.68,13.8-2,.47q-2.74-5.62-5.27-7.64a8.52,8.52,0,0,0-5.35-2A41.77,41.77,0,0,0,172.06,16l-7.85,1.86,5.62,23.76,6-1.42a16.56,16.56,0,0,0,5.62-2.08,3.79,3.79,0,0,0,1.66-2.66,20.3,20.3,0,0,0-.8-5.74l2-.47,4.58,19.38-2,.46c-.74-3.14-1.51-5.19-2.29-6.13a3.92,3.92,0,0,0-2.81-1.54,19.4,19.4,0,0,0-5.27.74l-6.23,1.47L173.48,57q2.37,10.08,4.09,11.54c1.14,1,3.61,1,7.4.12l4.22-1a20.75,20.75,0,0,0,7.07-2.88,13.48,13.48,0,0,0,4.37-6A28.25,28.25,0,0,0,202.42,48Zm335.41,65.92,1.79,1-9.89,15.23-42.11-23.43,1-1.73,1.05.59c2.53,1.4,4.34,2,5.46,1.71a5.29,5.29,0,0,0,2.83-1.79,68.18,68.18,0,0,0,4.72-7.76l13.87-24.94A65,65,0,0,0,520.45,65a4.1,4.1,0,0,0,0-3.38q-.74-1.36-4.41-3.42l1-1.72L553.3,76.66,547.45,90l-1.77-1c1.18-4,1.6-7.06,1.27-9.2a8.49,8.49,0,0,0-2.59-5.11,40.64,40.64,0,0,0-7.4-4.88l-7-3.93L518,87.24l5.4,3A16.94,16.94,0,0,0,529,92.5a3.84,3.84,0,0,0,3-.85,20.14,20.14,0,0,0,3.27-4.78l1.76,1-9.68,17.4-1.76-1c1.57-2.83,2.39-4.85,2.45-6.08a3.94,3.94,0,0,0-1-3,20,20,0,0,0-4.39-3L517,89l-6.7,12q-5,9-4.75,11.28c.18,1.49,2,3.19,5.38,5.08l3.79,2.11a20.62,20.62,0,0,0,7.17,2.63,13.42,13.42,0,0,0,7.29-1.49A28.45,28.45,0,0,0,537.83,113.91ZM274.44,58.48l-15.56,1.79q-4.47-2.42-14.41-13.72-3.18-3.61-6.53-6.87a29.58,29.58,0,0,0-4.56-3.93,6.08,6.08,0,0,0-3.55-.39l-2.3.26L229,48.46a77.81,77.81,0,0,0,1.34,8.89,4.62,4.62,0,0,0,2.07,2.94c1,.58,2.81.71,5.43.41l2.77-.32.22,2-27.67,3.18L213,63.57l1.87-.22c2.48-.28,4.15-.79,5-1.53a4.29,4.29,0,0,0,1.48-3.13,65.68,65.68,0,0,0-.68-9.27l-3.26-28.35A62.34,62.34,0,0,0,216,12.2a3.84,3.84,0,0,0-2-2.58q-1.41-.6-5.8-.11l-1,.11L207,7.67l8.23-1.38Q223.4,5,228.26,4.39a48.82,48.82,0,0,1,13.63,0,18.11,18.11,0,0,1,9,4.06,12.07,12.07,0,0,1,4.15,8,13,13,0,0,1-3.06,10.16q-3.72,4.48-11.71,6.4,3.83,1.34,13.13,11.27Q261,52.34,265,54.64a15.69,15.69,0,0,0,9.2,1.88ZM227.3,33.66c2.13-.3,4.33-.63,6.58-1A25,25,0,0,0,239.7,31a10.3,10.3,0,0,0,3.82-2.71,10.14,10.14,0,0,0,2-4.14,16.79,16.79,0,0,0,.22-6q-.69-6.09-4.17-9.41t-13.7-2.14c-1.05.13-2.25.32-3.6.59ZM581.65,171.37l-12.34-9.65q-1.48-4.86-.63-19.89c.18-3.2.23-6.36.17-9.48a29.88,29.88,0,0,0-.49-6,6,6,0,0,0-2.25-2.77l-1.83-1.43-7.95,10.18a78.7,78.7,0,0,0-5.29,7.28,4.58,4.58,0,0,0-.59,3.54c.31,1.12,1.51,2.49,3.58,4.11l2.2,1.71L555,150.54l-21.94-17.15,1.21-1.56,1.49,1.16c2,1.54,3.51,2.35,4.66,2.45a4.31,4.31,0,0,0,3.24-1.2,64.13,64.13,0,0,0,6-7.08l17.58-22.48a63.19,63.19,0,0,0,5.22-7.31,3.85,3.85,0,0,0,.36-3.25c-.38-1-1.73-2.34-4.05-4.15l-.78-.61,1.22-1.56,6.82,4.8q6.79,4.82,10.65,7.83a48.62,48.62,0,0,1,9.71,9.56,18.08,18.08,0,0,1,3.53,9.18,12.06,12.06,0,0,1-2.65,8.61,13,13,0,0,1-9.31,5.08q-5.79.6-12.83-3.65,1.8,3.63,1.44,17.25-.25,11.07,1,15.56a15.67,15.67,0,0,0,5.24,7.79ZM565.5,120.61c1.72,1.28,3.52,2.57,5.4,3.9a24.82,24.82,0,0,0,5.28,2.92,10.14,10.14,0,0,0,4.61.75,10,10,0,0,0,4.34-1.54,17,17,0,0,0,4.36-4.11q3.78-4.83,3.63-9.63t-8.25-11.14c-.84-.65-1.83-1.35-3-2.11ZM318.6,41.07l-.43,17.12H268.73v-2h1.72q3.74,0,5.17-.95a4.33,4.33,0,0,0,1.85-2.94,62.31,62.31,0,0,0,.41-9.29V14.51a59.21,59.21,0,0,0-.41-9,3.91,3.91,0,0,0-1.72-2.79Q274.45,2,270,2h-1.29V0h27.94V2H294.1q-4.29,0-5.63.71a3.71,3.71,0,0,0-1.77,2.64,54.36,54.36,0,0,0-.46,9.19V45a51.54,51.54,0,0,0,.35,7.9,3.69,3.69,0,0,0,1.86,2.47q1.53.88,6.55.88h4.42a24.88,24.88,0,0,0,8-.95,11.09,11.09,0,0,0,4.93-4.11q2.34-3.18,4.27-10.09ZM423.48,79.79,397.83,16.46l-10.44,39A26.91,26.91,0,0,0,386.16,62a5.55,5.55,0,0,0,2,3.55c1.26,1.25,3.39,2.28,6.37,3.08l-.51,1.9L373,64.9l.51-1.91a15.58,15.58,0,0,0,6.54.17,4.93,4.93,0,0,0,3.18-1.87,32.29,32.29,0,0,0,2.13-6.37l8-29.8a41.2,41.2,0,0,0,1.71-8.83A4.19,4.19,0,0,0,393.9,13q-1.14-1-5.66-2.18l.51-1.9,16.58,4.43L426.85,66.2l9-33.61a13,13,0,0,0,.63-5.43A5.54,5.54,0,0,0,434,24a17,17,0,0,0-5.44-2.4l.51-1.9,20.39,5.46-.51,1.9a15.43,15.43,0,0,0-6-.13,5.29,5.29,0,0,0-3.31,1.89,17.17,17.17,0,0,0-1.93,5L425.27,80.26ZM354.67,41.31l-21.95-2.58-1.92,3.49q-4.26,7.58-4.55,10a4.67,4.67,0,0,0,1.31,4.15,7.36,7.36,0,0,0,4.38,1.87l-.23,2-17.18-2,.23-2a9.31,9.31,0,0,0,6-2q2.13-1.89,5.56-8.36c.19-.4,1.07-2,2.63-4.7L350.48,3l1.66.2,13.92,48.17L368,57.73a8,8,0,0,0,2,3.5,8.74,8.74,0,0,0,4.36,2l-.23,2-22.72-2.67.23-2a17.48,17.48,0,0,0,5.72,0,2.42,2.42,0,0,0,1.76-2.28q.11-.95-1.3-5.82Zm-.5-2-7.34-25.84L333.75,36.91ZM452.4,28l9,3.33q11.25,4.17,15.07,5.81,11.91,5.1,17,11.58a25.64,25.64,0,0,1,5.7,14.09,33.1,33.1,0,0,1-2.89,15.74,34.14,34.14,0,0,1-6.37,10,24.58,24.58,0,0,1-8.34,6,22.7,22.7,0,0,1-9.28,1.82,31.7,31.7,0,0,1-8.64-1.23,106.24,106.24,0,0,1-10.51-4L429.44,81l.77-1.81,2.21,1q3.43,1.45,5.13,1.16a4.37,4.37,0,0,0,2.85-2,62.54,62.54,0,0,0,4-8.38l11.05-25.8a59.63,59.63,0,0,0,3.17-8.43,3.81,3.81,0,0,0-.48-3.23q-.9-1.22-5-2.95l-1.58-.68Zm16,8.17L453.11,71.93A110.11,110.11,0,0,0,449,82.27a4.54,4.54,0,0,0,.39,4c.72,1,2.68,2.24,5.86,3.6a32,32,0,0,0,12.3,3q5.31,0,10.74-4.31t9.16-13.05a41.89,41.89,0,0,0,3.43-12.86,23.83,23.83,0,0,0-1.32-10.81,18.54,18.54,0,0,0-5.31-7.65,39.51,39.51,0,0,0-9.7-5.58C472.58,37.74,470.52,36.93,468.42,36.19Zm-64.9,291.94-.29,11.66H369.57v-1.34h1.17a6.93,6.93,0,0,0,3.52-.64,3,3,0,0,0,1.26-2,42.86,42.86,0,0,0,.28-6.32V310.05a41,41,0,0,0-.28-6.11,2.74,2.74,0,0,0-1.17-1.9,9.15,9.15,0,0,0-3.9-.52h-.88v-1.34h19v1.34h-1.75A9.72,9.72,0,0,0,383,302a2.57,2.57,0,0,0-1.21,1.8,36.38,36.38,0,0,0-.31,6.25v20.74a34.51,34.51,0,0,0,.24,5.38,2.49,2.49,0,0,0,1.27,1.68c.69.4,2.17.6,4.45.6h3a17.21,17.21,0,0,0,5.42-.64,7.6,7.6,0,0,0,3.36-2.81,22,22,0,0,0,2.91-6.87Zm7.7-4.53a15.22,15.22,0,0,1,4.95-11.87,17.71,17.71,0,0,1,12.35-4.48A18.14,18.14,0,0,1,441,311.68c3.34,3,5,7,5,12.09a15.88,15.88,0,0,1-4.79,12q-4.8,4.61-12.62,4.6a17.45,17.45,0,0,1-12.49-4.6Q411.23,331.19,411.22,323.6Zm5.4.17q0,7.69,3.07,11.57t9.23,3.86a10.42,10.42,0,0,0,8.53-3.86q3.12-3.87,3.13-11.52,0-7.45-3.09-11.42t-8.95-4q-5.78,0-8.85,3.88T416.62,323.77Zm36.79-15.67,5.26-.26q6.57-.33,8.86-.33,7.11,0,11.09,2.17a14.07,14.07,0,0,1,5.93,5.88,18.25,18.25,0,0,1,1.94,8.56,18.56,18.56,0,0,1-1.06,6.42,13.47,13.47,0,0,1-2.91,4.83,12.31,12.31,0,0,1-4.29,2.92,17,17,0,0,1-4.63,1.25,57.14,57.14,0,0,1-6.17.25H453.27v-1.08h1.32a5.59,5.59,0,0,0,2.84-.52,2.41,2.41,0,0,0,1-1.62,33.72,33.72,0,0,0,.23-5.1V316.06a32.31,32.31,0,0,0-.23-4.93,2.1,2.1,0,0,0-.94-1.53,7.43,7.43,0,0,0-3.15-.42h-.94Zm9.85.66v21.35c0,3.15.06,5.19.18,6.1a2.47,2.47,0,0,0,1.06,1.92,8.1,8.1,0,0,0,3.73.55,17.7,17.7,0,0,0,6.86-1.14,9.43,9.43,0,0,0,4.49-4.5,18,18,0,0,0,1.8-8.56,23,23,0,0,0-1.05-7.24,13.15,13.15,0,0,0-3-5.17,10.19,10.19,0,0,0-4.34-2.71,21.54,21.54,0,0,0-6.1-.72Q465.09,308.64,463.26,308.76Zm52.79,17.39h13.79v1.13a7,7,0,0,0-3.1.46,2.28,2.28,0,0,0-1.07,1.53,29.42,29.42,0,0,0-.26,5.19v3.4a5.65,5.65,0,0,0-1-.1,14.25,14.25,0,0,0-4.75,1.11,21.15,21.15,0,0,1-7.43,1.51,15.49,15.49,0,0,1-16-15.95,18.13,18.13,0,0,1,4.34-12q4.33-5.16,11.78-5.16A13.59,13.59,0,0,1,523,312a11,11,0,0,0,1-3.55h1.13v10.67H524a12.74,12.74,0,0,0-3.74-7.8,10.42,10.42,0,0,0-7.41-2.87,10.73,10.73,0,0,0-7.84,3.34q-3.35,3.35-3.35,11.88t3.23,12.05a10.41,10.41,0,0,0,8,3.54,9.81,9.81,0,0,0,4.46-1,5.81,5.81,0,0,0,2.73-2.44,8,8,0,0,0,.73-3.62,11.27,11.27,0,0,0-.34-3.43,2,2,0,0,0-1.05-1.16,7.88,7.88,0,0,0-2.59-.29h-.76Zm46.34,3.7h1.14l-.69,9.94H536.38v-1.08H537c1.59,0,2.62-.22,3.08-.64a2.88,2.88,0,0,0,.88-1.61,36.67,36.67,0,0,0,.19-5V315.81A36.21,36.21,0,0,0,541,311a2.29,2.29,0,0,0-.92-1.62,6.59,6.59,0,0,0-3-.45v-1.09h22.83l.76,8h-1.11a12.34,12.34,0,0,0-1.85-4.75,4.64,4.64,0,0,0-2.6-1.77,23.28,23.28,0,0,0-4.86-.36h-4.43v13.4h3.4a9.12,9.12,0,0,0,3.26-.4,2.08,2.08,0,0,0,1.22-1.21,10.83,10.83,0,0,0,.3-3.17h1.11v10.93H554a9.32,9.32,0,0,0-.45-3.57,2.17,2.17,0,0,0-1.31-1.18,10.85,10.85,0,0,0-2.91-.27h-3.51V331c0,3.79.25,6,.73,6.69s1.8,1,3.94,1h2.38a11.3,11.3,0,0,0,4.14-.65,7.34,7.34,0,0,0,3.1-2.67A15.47,15.47,0,0,0,562.39,329.85ZM132.89,85.39l-2.49.94L95.23,50.19q-1-1-3.17-3.39c-2-2.17-3.77-3.48-5.25-3.93s-3.52-.21-6.11.71L80,41.73l23.44-8.88.69,1.84q-4.36,1.66-5.63,2.87a2.6,2.6,0,0,0-.58,3c.3.78,1.61,2.36,4,4.75l29.33,30.18,1.17-34.82q.31-8.74-.55-11-1.76-4.61-8.35-2.3l-.7-1.84,16.61-6.3.7,1.85a7.33,7.33,0,0,0-3.77,3.49,14.87,14.87,0,0,0-1.41,6.32l-.42,9.93ZM568.17,359.13H12.56v7.05H568.17Z"/></svg>