<svg id="Layer_1" data-name="Layer 1" xmlns="http://www.w3.org/2000/svg" viewBox="0 0 600 286.93"><defs><style>.cls-1{fill:#231f20;}</style></defs><path class="cls-1" d="M138.72,41.09h4.15c2.54,10.27,8.86,21.67,20.83,21.67,6.5,0,12.06-3,12.06-10.93,0-13.66-36.47-8.95-36.47-30.53,0-13.57,10.08-21.3,22-21.3,10.27,0,13.66,5,16.21,5,1.88,0,2.64-2.16,3.67-3.86h4V23.56h-3.77c-2.73-10.28-8.76-19.23-18.66-19.23-5.94,0-10.93,3.3-10.93,9.52,0,14.7,37,7.45,37,31.86,0,14-12.73,21.39-23.19,21.39-11.59,0-16-4.9-19-4.9-1.89,0-3.3,2.54-4.06,3.77h-3.77Z"/><path class="cls-1" d="M253.45,1.13l.38,23H249.5c-2.55-11-8-18.67-18.47-18.67V56c0,4.71,2.26,6.22,10.36,6.22V66H204.64V62.2c8.29,0,10.55-1.51,10.55-6.22V5.46c-10.46,0-15.92,7.64-18.47,18.67h-4.33l.37-23Z"/><path class="cls-1" d="M291.43,0c17.82,0,33.08,15.46,33.08,33.55S309.25,67.1,291.43,67.1s-33.08-15.45-33.08-33.55S273.62,0,291.43,0Zm0,62.76c11,0,15.36-11.11,15.36-29.21S302.46,4.33,291.43,4.33s-15.36,11.13-15.36,29.22S280.41,62.76,291.43,62.76Z"/><path class="cls-1" d="M326.83,1.13h23l31.67,44.11h.19V12.06c0-4.71-2.27-6.22-9.9-7.16V1.13h23.84V4.9c-6.4.94-8.67,2.45-8.67,7.16V66h-8.86L342.09,16h-.37V56c0,4.71,2.26,6.22,11,6.22V66H327.2V62.2c7,0,9.24-1.51,9.24-6.22V11.12c0-4.71-2.26-6.22-9.61-6.22Z"/><path class="cls-1" d="M458.55,24.31h-4.06c-3.3-12.34-10.93-18.85-22-18.85-5.84,0-7.82,1.42-7.82,6V29.78c9.05,0,12.16-2.08,14.7-10.93h3.77v26.2h-3.77c-2.54-8.86-5.65-10.94-14.7-10.94V55.6c0,4.62,2,6,7.82,6,12.63,0,20.46-8.1,23.47-20.36h4.05L459.49,66H399.65V62.2c7,0,9.23-1.51,9.23-6.22V11.12c0-4.71-2.26-6.22-9.23-6.22V1.13H458Z"/><path class="cls-1" d="M166.36,175.88v-3.77c7,0,9.23-1.5,9.23-6.21V121c0-4.7-2.25-6.22-9.23-6.22v-3.76h34.12c13.19,0,22.8,6,23,17.24.19,11.59-9.42,18-22.15,18H190.67v18.85c0,5.09,2.45,6.88,10,7v3.77ZM190.67,142h3.49c9.14,0,13.1-4.61,13.1-13.09,0-7.26-3.58-13.48-10.37-13.48-3.39,0-6.22,2.26-6.22,7Z"/><path class="cls-1" d="M284.29,134.23h-4.06c-3.3-12.35-10.93-18.85-22-18.85-5.84,0-7.82,1.42-7.82,6v18.28c9.05,0,12.16-2.07,14.7-10.93h3.77V155h-3.77c-2.54-8.86-5.65-10.93-14.7-10.93v21.49c0,4.61,2,6,7.82,6,12.63,0,20.46-8.11,23.47-20.36h4.05l-.56,24.69H225.38v-3.77c7,0,9.24-1.5,9.24-6.21V121c0-4.7-2.26-6.22-9.24-6.22v-3.76h58.34Z"/><path class="cls-1" d="M290.56,175.88v-3.77c7.07-1.32,9.33-4.14,12.63-12l20.92-50.23h5l24.13,55.88c2,4.52,4,5.94,8.95,6.31v3.77h-34v-3.77h3.77c4.9,0,5.66-1.13,5.66-3.11a10,10,0,0,0-1-3.76l-4.62-10.84H311.2l-3,7.44a16.46,16.46,0,0,0-1.13,5.94c0,2.64,1.7,4.33,5.37,4.33H317v3.77Zm30.72-46.27-8,19.89h16.59Z"/><path class="cls-1" d="M365.22,111.05H398v3.76c-5.47,0-7.73,1.52-7.73,6.22V141.2L410,121.88a5.94,5.94,0,0,0,2-4.24c0-1.69-.94-2.83-4.62-2.83h-3.3v-3.76h28.09v3.76c-7.26,1-8.77,1.52-12.54,5.09l-14.7,13.86,20.83,34.4c1.6,2.73,4.33,4,9,4v3.77H402.54v-3.77c3.49-.37,5.28-.94,5.28-2.17s-.75-2.54-14.14-25.34l-3.39,3.1v18.2c0,4.71,2.26,6.21,6.79,6.21v3.77H365.22v-3.77c7,0,9.24-1.5,9.24-6.21V121c0-4.7-2.26-6.22-9.24-6.22Z"/><path class="cls-1" d="M63.33,271.48c0,9.33-3.86,15.45-13.76,15.45-9.61,0-13.38-5.09-14-16.21-.66-11.49-1-14.61-11.22-16v19.79c0,5.37,1.23,7.54,9.05,7.54v3.77H0V282c7,0,9.24-1.51,9.24-6.22V231c0-4.71-2.27-6.22-9.24-6.22V221H33c16,0,24.13,6.41,24.13,17.34,0,12.35-12.25,15.46-22.8,15.64v.19c11.49,1.51,14.23,7.64,16.3,14.14,3,9.14,3.48,10.18,5.75,10.18s2.92-3.77,3.2-7Zm-39-20.17c10.28-.47,16.59-2.08,16.59-12.91,0-7.82-4-13.1-10.46-13.1-3.3,0-6.13,1.31-6.13,5.65Z"/><path class="cls-1" d="M125.44,244.15h-4c-3.3-12.35-10.93-18.85-22-18.85-5.84,0-7.82,1.41-7.82,6v18.28c9,0,12.16-2.07,14.7-10.93h3.77v26.2h-3.77c-2.54-8.86-5.65-10.94-14.7-10.94v21.49c0,4.62,2,6,7.82,6,12.63,0,20.45-8.1,23.47-20.35h4l-.57,24.69H66.54V282c7,0,9.24-1.51,9.24-6.22V231c0-4.71-2.27-6.22-9.24-6.22V221h58.34Z"/><path class="cls-1" d="M137.67,260.92h4.15c2.54,10.27,8.86,21.67,20.83,21.67,6.5,0,12.06-3,12.06-10.93,0-13.66-36.47-9-36.47-30.53,0-13.57,10.08-21.3,22-21.3,10.27,0,13.66,5,16.21,5,1.88,0,2.63-2.17,3.67-3.87h4v22.43h-3.77c-2.73-10.27-8.76-19.22-18.66-19.22-5.94,0-10.93,3.29-10.93,9.51,0,14.7,37,7.45,37,31.86,0,14-12.72,21.39-23.18,21.39-11.59,0-16-4.9-19-4.9-1.88,0-3.29,2.54-4.05,3.77h-3.77Z"/><path class="cls-1" d="M252.4,221l.38,23h-4.33c-2.55-11-8-18.66-18.48-18.66v50.51c0,4.71,2.27,6.22,10.37,6.22v3.77H203.59V282c8.29,0,10.55-1.51,10.55-6.22V225.3c-10.46,0-15.92,7.63-18.47,18.66h-4.33l.37-23Z"/><path class="cls-1" d="M289.42,221v3.77c-7.35,0-9.61,1.51-9.61,6.22v38.83c0,8.67,7.35,12.81,13.47,12.81,10.56,0,15.93-5.46,15.93-16.39V231.89c0-4.71-2.26-6.22-10.08-7.16V221H323v3.77c-6.41.94-8.67,2.45-8.67,7.16v33.56c0,14.89-9.14,21.48-24.78,21.48-10.47,0-24.23-4.15-24.23-18.66V231c0-4.71-2.26-6.22-9.14-6.22V221Z"/><path class="cls-1" d="M389.86,271.48c0,9.33-3.86,15.45-13.76,15.45-9.61,0-13.38-5.09-14-16.21-.66-11.49-1-14.61-11.22-16v19.79c0,5.37,1.23,7.54,9.05,7.54v3.77H326.53V282c7,0,9.24-1.51,9.24-6.22V231c0-4.71-2.27-6.22-9.24-6.22V221h33c16,0,24.13,6.41,24.13,17.34,0,12.35-12.25,15.46-22.81,15.64v.19c11.5,1.51,14.23,7.64,16.31,14.14,3,9.14,3.48,10.18,5.75,10.18s2.92-3.77,3.2-7Zm-39-20.17c10.28-.47,16.59-2.08,16.59-12.91,0-7.82-4-13.1-10.46-13.1-3.3,0-6.13,1.31-6.13,5.65Z"/><path class="cls-1" d="M391.87,285.8V282c7.07-1.32,9.33-4.15,12.62-12l20.93-50.23h5l24.13,55.88c2,4.53,4,5.94,8.95,6.32v3.77h-34V282h3.77c4.9,0,5.65-1.13,5.65-3.11a9.93,9.93,0,0,0-1-3.77l-4.62-10.84H412.51l-3,7.45a16.45,16.45,0,0,0-1.13,5.93c0,2.65,1.69,4.34,5.37,4.34h4.62v3.77Zm30.72-46.27-8,19.88h16.59Z"/><path class="cls-1" d="M466,221h23l31.67,44.11h.18V231.89c0-4.71-2.26-6.22-9.89-7.16V221h23.84v3.77c-6.41.94-8.67,2.45-8.67,7.16V285.8h-8.86l-36-50h-.38v40c0,4.71,2.27,6.22,11,6.22v3.77H466.35V282c7,0,9.24-1.51,9.24-6.22V231c0-4.71-2.27-6.22-9.62-6.22Z"/><path class="cls-1" d="M599.62,221l.38,23h-4.33c-2.55-11-8-18.66-18.47-18.66v50.51c0,4.71,2.26,6.22,10.36,6.22v3.77H550.81V282c8.29,0,10.55-1.51,10.55-6.22V225.3c-10.46,0-15.92,7.63-18.47,18.66h-4.33l.37-23Z"/></svg>